<?xml version="1.0" encoding="utf-8"?>
<!-- Generator: Adobe Illustrator 27.5.0, SVG Export Plug-In . SVG Version: 6.00 Build 0)  -->
<svg version="1.1" xmlns="http://www.w3.org/2000/svg" xmlns:xlink="http://www.w3.org/1999/xlink" x="0px" y="0px"
	 viewBox="0 0 750 500" style="enable-background:new 0 0 750 500;" xml:space="preserve">
<g id="BACKGROUND">
</g>
<g id="OBJECTS">
	<path style="opacity:0.5;fill:#9DCEBE;" d="M193.349,442.184c33.186,2.627,67.776-0.558,102.023-1.036
		c87.783-1.226,175.661-2.846,263.38,1.731c35.231,1.838,72.735,0.102,103.426-19.291c33.475-21.151,52.504-60.033,58.73-99.138
		c6.506-40.863,5.75-91.862-9.355-130.528C658.183,57.303,478.827,68.808,372.787,128.53c-22.314,12.567-45.445,25.704-70.91,30.487
		c-26.502,4.977-46.926-7.725-70.695-17.432c-33.229-13.57-71.738-14.575-105.024-1.143
		C18.528,183.872,13.411,334.264,95.192,404.579C124.992,430.201,158.392,439.417,193.349,442.184z"/>
	<g>
		<path style="fill:#221E1F;" d="M143.78,155.925c0,0,4.962,6.332,5.258,13.284c0.296,6.952-2.084,3.352-2.084,3.352
			s2.248,13.036,0,12.167c-2.248-0.869-3.835-2.111-3.835-2.111s-0.707,8.07-1.478,7.201c-0.77-0.869-2.754,0.621-2.754,0.621
			s1.629,8.318-2.094,8.194c-3.724-0.124-11.658-3.725-11.658-3.725l-9.917-0.786l-6.656-0.497c0,0-9.31,5.524-8.727,0.497
			c0.815-7.03-1.807-1.821-2.336-4.8c-0.529-2.98,0.295-6.27,0.295-6.27s-3.088,4.775-4.251,1.488
			c-1.384-3.915,3.956-12.102,3.956-12.102s-3.359,6.664-5.077,3.933c-1.718-2.731,0-6.95,2.132-16.469l6.78-12.73l32.926-2.047
			L143.78,155.925z"/>
		<path style="fill:#221E1F;" d="M141.173,154.57c0,0,4.436,6.081,4.701,12.758c0.265,6.677-1.864,3.219-1.864,3.219
			s2.01,12.52,0,11.685c-2.01-0.835-3.429-2.027-3.429-2.027s-0.633,7.75-1.321,6.916c-0.689-0.835-2.462,0.596-2.462,0.596
			s1.457,7.989-1.873,7.87c-3.33-0.119-10.424-3.577-10.424-3.577l-8.868-0.755l-5.951-0.477c0,0-8.325,5.305-7.803,0.477
			c0.729-6.751-1.616-1.749-2.089-4.61c-0.473-2.862,0.263-6.021,0.263-6.021s-2.761,4.585-3.801,1.429
			c-1.238-3.759,3.537-11.623,3.537-11.623s-3.004,6.4-4.54,3.777c-1.536-2.623,0-6.675,1.907-15.817l6.062-12.226l29.44-1.966
			L141.173,154.57z"/>
		<path style="fill:#F3B2A7;" d="M133.55,177.643c0,0,1.159,24.094,1.49,24.425c0.331,0.331,16.388-0.662,29.299,7.244
			l-2.235,122.038c0,0-25.555,10.43-46.632,10.429c-10.942,0-42.507-10.429-42.507-10.429S58.17,221.311,73.71,209.311
			c8.524-6.582,30.871-7.079,30.871-7.079l1.821-24.59H133.55z"/>
		<path style="fill:#F3B2A7;" d="M97.623,157.352c1.416-14.092,9.31-26.098,25.93-24.659c25.555,2.215,23.977,44.95,10.218,58.016
			c-8.343,7.923-22.167,6.785-28.145-1.195C99.541,181.393,96.483,168.697,97.623,157.352z"/>
		<path style="opacity:0.24;fill:#F3B2A7;" d="M142.303,155.633c-1.148-5.532-2.177-10.906-4.982-15.111l-13.278,6.229
			c0,0-2.331,10.958-1.884,16.473c0.993,12.258,5.556,11.885,1.803,15.357c-3.034,2.806,1.86,10.103-1.321,17.527
			c4.56-0.62,11.766-3.876,13.765-7.796C141.238,178.836,144.875,168.033,142.303,155.633z"/>
		<path style="fill:#A97B66;" d="M149.327,319.431c0,0,12.033,11.587,15.012,32.61c2.98,21.023,1.49,69.421,0,90.014h-32.776
			l-16.091-68.992l-6.752,68.992H69.851c0,0-11.059-75.944,0-97.795s36.744-21.85,36.744-21.85L149.327,319.431z"/>
		<path style="fill:#F3B2A7;" d="M204.918,205.542c0,0,3.411-8.34,3.886-15.256c0.476-6.916-0.692-8.648-0.32-14.558
			c0.372-5.91-1.07-15.044-0.138-15.19c0.931-0.146,4.317-0.346,4.913,3.91c0.596,4.256,1.571,8.64,1.571,8.64l8.148-17.768
			c0,0,3.141-7.025,5.78-5.526c2.692,1.528-5.328,14.941-4.301,15.664c1.47,1.035,6.5-7.049,6.5-7.049s5.078-8.901,7.747-7.453
			c2.669,1.448-7.564,15.736-7.564,15.736s-1.197,2.663,0.676,2.182c1.873-0.48,9.144-12.443,11.798-11.622
			c2.655,0.821-4.671,10.273-4.671,10.273s-4.915,4.879-2.637,5.708c2.278,0.829,9.626-7.62,11.165-6.147
			c1.539,1.473-4.602,7.692-7.194,9.729c-2.592,2.037-5.652,5.62-7.212,8.919c-1.56,3.299-3.744,7.628-7.729,8.719l-3.364,11.855
			L204.918,205.542z"/>
		<path style="fill:#FFF9E2;" d="M133.55,202.067c0.393-0.255,17.878-0.662,30.789,7.244l-2.235,122.038
			c0,0-11.339,15.395-46.606,15.395c-22.007,0-42.533-15.395-42.533-15.395S58.17,221.311,73.71,209.311
			c8.524-6.582,32.361-6.582,32.361-6.582C104.868,206.504,120.451,210.551,133.55,202.067z"/>
		<path style="fill:#006E58;" d="M228.235,199.75l-25.492-7.614l-16.222,44.528c0,0-18.529-28.658-25.156-28.979
			c-6.626-0.321-5.302,36.097-5.302,36.097l17.878,47.012c0,0,8.608,14.567,24.499,5.297
			C214.33,286.82,228.235,199.75,228.235,199.75z"/>
		<path style="fill:#F3B2A7;" d="M83.795,334.728l2.579,8.346l4.633,4.828c0,0-8.934,11.928-17.381,14.898l-2.819-5.8
			c0,0-3.097-8.202-2.787-8.236C68.33,348.73,83.795,334.728,83.795,334.728z"/>
		<path style="fill:#006E58;" d="M102.098,202.01c0,0,7.283,27.536,3.311,54.021c-3.973,26.485-35.093,91.374-40.721,103.293
			c-5.628,11.918-2.648,36.417-2.648,36.417s-27.81-26.154-28.803-33.769c-0.993-7.615,3.642-34.431,17.878-47.343
			c14.236-12.912,23.234-107.948,23.234-107.948L102.098,202.01z"/>
		<polygon style="fill:#006E58;" points="92.66,230.425 83.795,253.113 94.022,265.365 85.132,269.59 87.938,300.303 
			94.022,277.617 98.559,269.903 99.657,257.722 		"/>
		<polygon style="fill:#006E58;" points="66.605,330.715 46.89,321.511 63.695,361.807 72.424,346.247 		"/>
		<path style="fill:#006E58;" d="M91.835,211.337l10.015-8.731c0,0-14.066-1.22-24.157,2.429
			c-7.236,2.617-14.499,7.367-18.307,14.054c-6.65,11.677-16.706,32.188-20.645,62.639c-0.467,3.608-0.484,7.262,0.002,10.867
			c1.537,11.399,7.436,37.022,30.082,65.901c0,0,14.07-10.263,20.692-19.202c0,0-13.243-32.941-15.229-37.576
			c-1.986-4.635-4.966-13.574-4.966-13.574l13.574-43.701L91.835,211.337z"/>
		<path style="fill:#04826A;" d="M102.098,202.01l-18.303,45.855l14.237,17.211l-9.985,5.949l-0.137,36.82
			c0,0,14.665-36.023,16.735-47.695C109.412,233.265,102.098,202.01,102.098,202.01z"/>
		<g>
			<path style="fill:#006E58;" d="M164.339,209.311c0,0-11.568-10.986-27.79-7.09c0,0,11.567,39.905,7.553,64.617
				c-3.072,18.911-3.269,96.458,2.69,109.701l38.735-21.519l-10.925-76.998L164.339,209.311z"/>
			<path style="fill:#006E58;" d="M156.062,243.782l0.735,1.445l4.241,8.34l-8.254,9.529l7.033,11.258l-13.873,23.533l1.848-26.193
				c0,0-0.227-12.765,0-13.971"/>
			<path style="fill:#04826A;" d="M136.549,202.222c0,0,18.851,25.089,25.555,45.947l-12.777,14.65l8.308,11.422
				c0,0-15.727,26.821-15.639,38.983C141.996,313.223,144.102,252.389,136.549,202.222z"/>
		</g>
		<polyline style="fill:#A1B84E;" points="123.895,205.461 127.839,219.49 124.991,228.136 117.673,228.136 113.982,219.649 
			117.783,206.249 		"/>
		<polyline style="fill:#A1B84E;" points="121.15,214.317 122.222,217.363 123.419,222.594 130.93,244.002 130.93,296.919 
			121.15,308.505 110.59,296.919 110.59,243.505 120.44,222.594 		"/>
		<path style="fill:#DDD4B8;" d="M135.059,196.108c0,0,0.477,5.297-13.428,12.746l9.27,16.388c0,0,8.856-14.567,9.725-21.373
			L135.059,196.108z"/>
		<path style="fill:#DDD4B8;" d="M105.017,196.605c0,0-0.477,4.8,13.428,12.249l-9.27,16.388c0,0-7.971-14.567-9.518-20.774
			L105.017,196.605z"/>
		<polygon style="fill:#006E58;" points="77.633,248.277 66.605,290.541 85.132,328.401 73.19,290.428 		"/>
		<path style="fill:#006E58;" d="M176.924,294.384l-9.197-50.174l20.527,54.967C188.253,299.177,179.907,297.974,176.924,294.384z"
			/>
		<path style="fill:#221E1F;" d="M134.171,145.124c0,0,0.121,0.807,0.353,2.047c0.817,4.368,3.008,14.108,6.103,12.851
			c3.973-1.614,6.456,6.083,7.201,0.621s-0.124-18.891-7.201-20.929C133.55,137.675,134.171,145.124,134.171,145.124z"/>
		<path style="fill:#F3B2A7;" d="M139.326,163.128c0,0-0.304-6.276,4.595-4.133c4.899,2.144,4.077,12.903-2.301,12.579"/>
		<path style="fill:#F3B2A7;" d="M101.161,162.789c0,0-0.259-6.278-4.947-3.704c-4.688,2.574-2.906,13.216,3.418,12.322"/>
		<path style="fill:#221E1F;" d="M142.304,146.46c0,0-6.056,8.613-14.313,10.643c-1.299,0.319-2.554-0.689-2.472-2.023
			c0.057-0.924,0.25-2.124,0.717-3.612c1.162-3.71-3.754,6.569-10.458,6.838l2.145-5.923c0,0-4.558,7.8-10.324,8.068l1.743-4.156
			c0,0-4.538,8.771-7.374,9.192c-4.17,0.619-3.888-4.768-3.888-4.768s-4.827,8.044-4.827,4.558s2.815-7.337,2.815-7.337
			s-5.363,4.79-4.558,1.706c0.804-3.084,3.516-10.062,3.516-10.062s-4.86,3.02-4.86,1.411c0-1.609,2.553-11.636,11.801-14.678
			c7.451-2.451-1.877-2.011-1.877-2.011s4.836-3.62,8.849-3.352c4.013,0.268,6.57-0.014,6.57-0.014s-10.592-1.595-10.592-3.07
			c0-1.475,11.026,1.341,11.948,1.341c0.923,0-4.976-2.145-3.636-2.95c1.341-0.804,8.178,2.547,11.396,3.486
			c3.218,0.939,12.066,1.877,13.541,4.022c1.475,2.145-2.145,1.877-2.145,1.877s8.948,3.713,9.921,9.117
			C146.348,147.007,142.304,146.46,142.304,146.46z"/>
		<path style="opacity:0.48;fill:#F3B2A7;" d="M105.625,189.514c5.979,7.981,19.803,9.118,28.145,1.195
			c0.145-0.138,0.287-0.284,0.43-0.429c0.085,1.549-1.328,3.64-1.561,3.862c-7.508,7.13-17.375,7.66-23.631,1.678
			c-1.209-1.156-2.093-2.608-2.661-4.181c-0.398-1.104-0.814-2.257-0.814-2.257C105.565,189.425,105.594,189.472,105.625,189.514z"
			/>
		<path style="fill:#FFF9E2;" d="M105.017,194.122c0,0,1.51,4.8,15.414,12.249l-11.256,16.388c0,0-7.971-14.567-9.518-20.774
			L105.017,194.122z"/>
		<path style="fill:#FFF9E2;" d="M135.059,193.625c0,0-1.013,5.297-14.918,12.746l10.76,16.388c0,0,8.856-14.567,9.725-21.373
			L135.059,193.625z"/>
		<path style="opacity:0.24;fill:#F3B2A7;" d="M139.326,163.128c0,0-0.304-6.276,4.595-4.133c4.899,2.144,4.077,12.903-2.301,12.579
			"/>
		<path style="opacity:0.24;fill:#F3B2A7;" d="M214.83,173.089c0,0,2.4,4.004,1.779,7.17c0,0,1.676-5.593-0.838-9.221
			L214.83,173.089z"/>
		<path style="opacity:0.45;fill:#A97B66;" d="M132.307,386.784c-1.037-7.076-4.258-28.288-4.258-28.288l-12.577,14.567
			l16.091,68.992h4.986h4.077h5.318c0,0-6.759-9.571-7.118-11.961v0c-0.36-2.39,1.748-7.666,7.118-6.638
			C150.301,424.29,136.549,415.743,132.307,386.784z"/>
		<path style="fill:#006E58;" d="M117.673,228.136c0,0,4.163,2.443,7.318,0H117.673z"/>
	</g>
	<g>
		<path style="fill:#667EA2;" d="M242.632,348.207c0,0-11.242,31.352-10.428,71.763l-0.028,22.085h33.547l15.213-50.145
			l6.322,50.145h32.654c0,0,9.694-38.487,10.619-63.752c0.661-18.042-10.619-30.095-10.619-30.095H242.632z"/>
		<g>
			<path style="fill:#F3B2A7;" d="M190.67,222.838c0,0-2.989-7.309-3.406-13.37c-0.417-6.062,0.607-7.58,0.28-12.759
				c-0.326-5.179,0.938-13.184,0.121-13.312c-0.816-0.128-3.783-0.303-4.306,3.427c-0.522,3.73-1.377,7.572-1.377,7.572
				l-7.141-15.572c0,0-2.753-6.157-5.065-4.843c-2.359,1.339,4.669,13.095,3.77,13.728c-1.288,0.907-5.697-6.178-5.697-6.178
				s-4.45-7.801-6.789-6.532c-2.339,1.269,6.629,13.791,6.629,13.791s1.049,2.334-0.592,1.913
				c-1.641-0.421-8.014-10.905-10.34-10.186c-2.327,0.719,4.094,9.003,4.094,9.003s4.308,4.276,2.311,5.003
				c-1.997,0.726-8.437-6.678-9.785-5.387c-1.349,1.291,4.033,6.741,6.305,8.527c2.272,1.786,4.954,4.926,6.321,7.817
				c1.367,2.891,3.281,6.685,6.774,7.641l2.949,10.39L190.67,222.838z"/>
			<path style="opacity:0.24;fill:#F3B2A7;" d="M181.626,194.892c0,0-3.069,7.545-2.302,10.742l-2.43-4.732
				C176.894,200.902,180.329,196.746,181.626,194.892z"/>
		</g>
		<path style="fill:#FA9900;" d="M287.78,224.853l-28.102-3.51c0,0-9.932-5.428-19.533,3.51c-9.601,8.939,0,26.154,0,26.154
			s0.662,31.12,0.662,47.674c0,16.553-15.643,57.523-2.4,60.172c0,0,28.649,0.083,30.919-0.579c2.27-0.662,7.49,4.561,18.454,0.294
			c10.964-4.267,31.115,4.628,37.075-0.338c5.959-4.966,8.982-44.535,3.354-53.035c-5.628-8.5-4.966-71.071-4.966-71.071
			s-11.806-14.304-21.96-12.78C291.129,222.867,287.78,224.853,287.78,224.853z"/>
		<path style="fill:#FA9900;" d="M261.167,212.438c0,0-0.526-6.864,6.715-1.426c5.865,4.405,7.423,4.983,13.087,4.391
			s16.471-8.263,19.522-5.449c3.052,2.814-1.749,4.469,2.224,7.118c3.973,2.649,4.469,3.642,1.549,6.29
			c-3.552,3.222-15.123,9.932-27.041,8.111c-11.918-1.821-22.181-5.794-20.857-10.76
			C257.691,215.749,261.83,217.239,261.167,212.438z"/>
		<path style="fill:#FA9900;" d="M317.863,337.747l12.277,2.838c0,0-1.637,19.206-8.1,19.626
			c-8.709,0.566-28.759-4.224-28.759-4.224l10.429-12.033L317.863,337.747z"/>
		<polygon style="fill:#FA9900;" points="298.315,358.568 275.236,350.573 324.382,299.608 298.315,341.318 		"/>
		<path style="fill:#FA9900;" d="M252.53,230.482l-8.921-8.265c0,0-11.411,9.59-17.37,18.197
			c-5.959,8.608-11.918,13.574-11.918,13.574s-17.092-26.033-19.202-31.771c-2.318-6.302-6.29-12.306-6.29-12.306l-15.891,6.004
			c0,0,8.277,37.08,12.912,47.674c4.635,10.594,12.581,35.424,29.796,33.107c17.215-2.317,40.675-29.796,40.675-29.796
			L252.53,230.482z"/>
		<path style="fill:#EA9883;" d="M267.021,368.629c-0.618-1.327,1.171-2.162,5.708-4.3c0.169-0.08,0.969-1.091,1.158-1.183
			c0.706-0.417-5.671,2.801-6.398,1.622c-0.966-1.565,0.252-2.511,5.988-5.268c3.697-1.776,7.245-3.211,7.515-4.629
			c0.697-3.651-9.527-2.005-5.756-4.297c1.257-0.764,4.602-2.081,6.351-2.645c3.341-1.078,2.834-1.137,9.253-1.659
			c10.082-0.82,16.783-17.401,14.707-5.288c-0.695,4.055-1.681,8.303-4.188,12.289c-4.984,7.923-13.31,14.845-18.632,17.4
			c-0.344,0.165-0.681,0.337-1.013,0.501c-2.651,1.451-5.225,2.103-5.751,1.489c-0.802-0.935,2.345-2.884,4.83-4.032
			c0.712-0.329-8.226,3.741-9.133,2.704c-0.964-1.102,3.037-3.205,5.976-4.597C278.451,366.349,267.961,370.647,267.021,368.629z"/>
		<path style="fill:#FA9900;" d="M298.796,236.238c-0.555-7.09,4.525-13.535,11.589-14.356c0.233-0.027,0.47-0.049,0.711-0.066
			c8.67-0.605,18.271,5.023,21.251,12.969c2.98,7.946,24.168,57.448,24.168,73.166c0,0-21.45,39.098-52.96,48.036
			c0,0-14.372-6.952-15.989-15.56c0,0,28.559-35.233,36.816-40.819C324.382,299.608,300.753,261.218,298.796,236.238z"/>
		<polygon style="fill:#667EA2;" points="270.544,382.899 280.936,391.91 265.723,442.055 262.161,442.055 		"/>
		<path style="fill:#FA9900;" d="M269.077,221.772l-5.344-3.954l-6.236,6.529c0,0,22.127,10.355,35.039,9.362
			c12.912-0.993,17.849-11.827,17.849-11.827l-9.103-0.539L269.077,221.772z"/>
		<g>
			<path style="fill:#FA9900;" d="M298.315,220.35c-2.968-0.993-6.631,0.829-6.269-0.64c0.362-1.469,3.26,0.02,5.555-1.892
				c2.294-1.912,1.449-7.507,2.892-7.863c-3.052-2.814-13.858,4.857-19.522,5.449c-5.664,0.591-7.222,0.014-13.087-4.391
				c-5.232-3.929-6.408-1.437-6.659,0.249c0.397,0.009,0.79,0.302,1.117,0.982c0.896,1.865,8.211,5.575,8.211,5.575l9.508,3.24
				c-6.311,0.725-11.802-2.657-16.327-3.24c-4.525-0.583-2.841,0.342-5.858,0.07c-0.606,0.647-1.156,1.508-1.508,2.827
				c-1.324,4.966,8.939,8.939,20.857,10.76c11.918,1.821,23.489-4.889,27.041-8.111C302.96,221.684,301.283,221.343,298.315,220.35z
				"/>
			<path style="opacity:0.48;fill:#FA9900;" d="M302.716,217.073c-3.973-2.648,0.828-4.304-2.224-7.118
				c-1.443,0.356-0.597,5.951-2.892,7.863c-2.294,1.912-5.192,0.423-5.555,1.892c-0.362,1.469,3.301-0.354,6.269,0.64
				s4.645,1.334,5.95,3.014C307.186,220.715,306.689,219.722,302.716,217.073z"/>
			<path style="opacity:0.48;fill:#FA9900;" d="M263.733,217.818c4.525,0.583,10.016,3.964,16.327,3.24l-9.508-3.24
				c0,0-7.315-3.71-8.211-5.575c-0.327-0.68-0.72-0.973-1.117-0.982c-0.096,0.648-0.056,1.177-0.056,1.177
				c0.486,3.526-1.616,3.661-3.292,5.45C260.892,218.16,259.209,217.235,263.733,217.818z"/>
		</g>
		<path style="opacity:0.48;fill:#FA9900;" d="M264.395,206.309c0,0,12.495,19.488,27.067,14.85c10.367-3.3-0.98-18.874-0.98-18.874
			L264.395,206.309z"/>
		<path style="fill:#221E1F;" d="M270.662,162.586l4.369-9.3c0,0-16.881,2.356-20.978,17.291
			c-4.43,16.145,0.858,34.855,15.141,40.119c14.283,5.263,18.358,3.411,25.441-1.155c7.084-4.566,23.647-33.093,2.79-50.457"/>
		<path style="fill:#F3B2A7;" d="M302.779,177.732c-1.395-13.884-9.173-25.712-25.546-24.294
			c-25.177,2.182-23.622,44.285-10.067,57.158c8.219,7.806,21.839,6.685,27.729-1.178
			C300.889,201.417,303.902,188.909,302.779,177.732z"/>
		<path style="opacity:0.24;fill:#F3B2A7;" d="M301.289,177.732c-1.148-5.533-2.177-10.906-4.982-15.111l-13.278,6.229
			c0,0-2.331,10.958-1.884,16.474c0.993,12.258,5.556,11.885,1.803,15.357c-3.033,2.806,1.86,7.62-1.321,15.044
			c4.56-0.62,10.629-2.784,13.268-6.306C300.889,201.417,303.862,190.133,301.289,177.732z"/>
		<path style="fill:#F3B2A7;" d="M261.693,184.905c0,0,0.299-6.183-4.527-4.071c-4.827,2.112-4.017,12.712,2.267,12.393"/>
		<path style="fill:#221E1F;" d="M293.004,166.337c0,0-2.756,14.782-16.661,17.251l0.353-4.676c0.187-1.359-1.449-2.175-2.43-1.216
			c-2.225,2.176-5.476,4.664-9.149,5.276l1.957-4.893c0,0-4.312,7.289-9.577,7.151c0,0-1.839-4.215-1.024-10.576
			c0.815-6.36,7.366-21.853,24.639-22.18C298.386,152.148,293.004,166.337,293.004,166.337z"/>
		<path style="fill:#221E1F;" d="M290.721,163.891c0,0,1.26,9.785,3.076,12.558c1.816,2.772,4.426,8.17,4.426,8.17
			s0.489-4.909,4.403-4.909s-1.931-23.977-11.077-24.138C282.404,155.41,290.721,163.891,290.721,163.891z"/>
		<path style="fill:#221E1F;" d="M297.897,166.174c0,0,4.914-8.002,1.397-12.726c-3.517-4.724-7.594-6.029-9.551-6.029
			s-2.419-2.283-8.63-1.631c-6.211,0.652-14.507,3.58-11.337,10.76C272.945,163.727,297.897,166.174,297.897,166.174z"/>
		<path style="fill:#FA9900;" d="M307.59,255.808c0,0-3.229,2.483-1.568,9.932c1.661,7.449,18.36,33.868,18.36,33.868
			L307.59,255.808z"/>
		<path style="fill:#FA9900;" d="M239.79,252.882c0,0-0.314,11.716,0.891,29.588c0,0-13.023,13.081-25.036,14.225
			c0,0,14.335-9.489,17.439-15.824C236.189,274.535,239.79,252.882,239.79,252.882z"/>
		<path style="fill:#F3B2A7;" d="M298.315,183.585c0,0,1.234-6.185,5.852-3.65c4.618,2.536,2.863,13.021-3.368,12.14"/>
		<path style="fill:#006E58;" d="M299.077,160.095c0,0-13.574-13.397-30.109-7.626l0.808,4.079
			C269.775,156.548,285.805,154.438,299.077,160.095z"/>
		<path style="opacity:0.24;fill:#F3B2A7;" d="M298.334,183.684c0,0,1.234-6.185,5.852-3.65s2.863,13.021-3.368,12.14"/>
	</g>
	<g>
		<g>
			<path style="fill:#F3B2A7;" d="M551.727,114.062c0,0-0.839-8.625,0.633-15.128c1.472-6.503,3.026-7.776,4.316-13.323
				c1.289-5.547,5.141-13.563,4.323-13.955s-3.882-1.511-5.606,2.245c-1.724,3.756-3.834,7.525-3.834,7.525l-2.598-18.619
				c0,0-0.953-7.339-3.798-6.687c-2.902,0.665,0.781,15.236-0.364,15.618c-1.64,0.548-4.041-8.289-4.041-8.289
				s-2.219-9.602-5.078-9.005c-2.858,0.597,2.622,16.586,2.622,16.586s0.367,2.784-1.225,1.824
				c-1.593-0.96-4.987-13.988-7.659-13.966c-2.672,0.023,1.466,10.754,1.466,10.754s3.18,5.853,0.853,5.987
				c-2.328,0.134-6.764-9.678-8.588-8.747c-1.825,0.932,2.115,8.357,3.94,10.95c1.825,2.593,3.655,6.739,4.18,10.209
				c0.526,3.47,1.342,8.061,4.713,10.167l-0.175,11.85L551.727,114.062z"/>
			<path style="opacity:0.24;fill:#F3B2A7;" d="M551.027,81.836c0,0-5.604,6.964-5.805,10.566l-1.063-5.74
				C544.159,86.663,549.08,83.377,551.027,81.836z"/>
		</g>
		<path style="fill:#221E1F;" d="M664.648,140.468l5.047,5.17c0,0,6.112,5.17,1.672,14.478c-2.586,5.421-6.084,3.929-4.437,9.507
			c1.648,5.577-3.53,10.242-7.503,8.504c-3.63-1.588-8.849,12.538-12.905,5.439c-4.056-7.098-14.959-1.252-22.316-1.564
			c-9.383-0.399-12.669-6.548-10.895-10.478c1.775-3.929,0.887-6.718-3.169-9.634c-4.056-2.915-4.038-9.263-0.108-11.164
			c3.93-1.901,7.714-16.089,7.714-16.089l8.239-5.958c0,0,25.098,3.803,25.859,3.803
			C652.606,132.483,664.648,140.468,664.648,140.468z"/>
		<path style="fill:#221E1F;" d="M652.886,151.865c0,0,15.447,4.749,12.831,8.292c-2.616,3.543-3.91,4.29-3.761,7.903
			c0.149,3.613,2.094,7.72-1.367,10.825c-3.461,3.105-17.668,2.841-17.668,2.841l-14.201-0.088l-11.585-4.858
			c0,0-1.62-0.997-1.495-3.986c0.125-2.99,0.743-6.976-1.248-9.218c-1.991-2.242-3.61-8.598-1.742-11.026
			c1.869-2.428,14.699-2.553,15.447-2.553"/>
		<path style="fill:#BD262B;" d="M681.049,194.163c0,0-4.423-24.024-35.395-23.964c-30.972,0.06-42.871,9.868-45.984,23.964
			c-3.113,14.096,22.387,13.715,22.387,13.715l30.828,0.001L681.049,194.163z"/>
		<path style="fill:#BD262B;" d="M633.189,179.455c0,0-0.755-0.133-1.904-0.213c-3.445-0.239-10.478,0.004-11.223,5.767
			c0,0,3.821,4.188,10.277,5.595c6.456,1.407,28.011-4.155,28.011-4.155s1.821-7.037-9.932-7.266"/>
		<path style="fill:#F3B2A7;" d="M652.226,165.96c0,0-0.248,26.32,2.731,28.555c0,0-14.898,8.442-30.789,0c0,0,0-20.112,0-25.823
			C624.168,162.981,652.226,165.96,652.226,165.96z"/>
		<path style="opacity:0.68;fill:#F3B2A7;" d="M643.766,174.154l8.584,6.652c0,0-17.075,16.339-24.027,13.234
			c-4.547-2.031-4.156-6.18-4.156-6.18v-10.232L643.766,174.154z"/>
		<path style="fill:#F3B2A7;" d="M660.353,148.644c-1.416-14.092-9.31-26.098-25.93-24.658
			c-25.555,2.215-23.977,44.95-10.218,58.016c8.343,7.923,22.167,6.785,28.145-1.195
			C658.435,172.685,661.493,159.989,660.353,148.644z"/>
		<path style="opacity:0.24;fill:#F3B2A7;" d="M615.673,146.925c1.148-5.532,2.177-10.906,4.982-15.111l13.278,6.229
			c0,0,2.331,10.958,1.884,16.473c-0.993,12.258-5.556,11.885-1.803,15.357c3.033,2.806-1.86,10.103,1.321,17.527
			c-4.56-0.62-11.766-3.876-13.765-7.796C616.738,170.128,613.101,159.326,615.673,146.925z"/>
		<path style="fill:#024386;" d="M594.123,324.624c0,0-2.98,31.286-3.973,45.191c-0.993,13.905,1.986,72.24,1.986,72.24h35.294
			l10.059-63.302l8.071,63.302h37.206c0,0,4.221-88.628,0-105.513C678.546,319.658,594.123,324.624,594.123,324.624z"/>
		<path style="fill:#221E1F;" d="M619.298,139.56c0,0-0.143-3.226,3.144-1.173c3.287,2.053,9.868,2.978,10.793-0.344
			c0.925-3.322,4.355-5.081,6.499-2.442c2.144,2.639,8.003,2.493,9.575,0.147c1.572-2.346,4.325,0.421,4.573,5.279
			c0.198,3.88,2.858,10.118,8.574,9.678c5.716-0.44,8.998-6.889,9.739-12.293c1.331-9.707-1.868-13.703-8.471-15.571
			c-5.775-1.634-3.135-10.09-12.415-9.38c-5.572,0.426-7.635,2.718-10.289-0.144c-3.53-3.805-9.575-3.229-11.718-0.883
			s-2.715,3.226-7.574,2.493c-4.859-0.733-11.638,3.812-10.964,10.264c0.674,6.452,3.104,8.798-1.183,10.704
			c-4.287,1.906-4.253,14.309,0.453,14.832C613.318,151.092,621.013,150.704,619.298,139.56z"/>
		<path style="fill:#BD262B;" d="M655.454,187.066c0,0-17.686,20.517-32.776,0c0,0-24.333-4.221-32.279,11.918
			c-6.266,12.729-0.248,79.283-0.248,79.283s2.265,11.795,0.993,28.727c-0.418,5.564-8.893,29.776-1.196,36.232
			c7.697,6.456,36.398,3.16,44.897,2.006c43.398-5.889,34.265,11.358,45.439,1.582c11.173-9.776,10.429-57.946,10.677-71.851
			c0.248-13.905,5.711-53.385,4.221-61.082C693.692,206.185,686.243,185.576,655.454,187.066z"/>
		<polyline style="fill:#BD262B;" points="681.499,297.303 681.499,284.585 655.454,355.262 666.211,352.375 682.767,293.149 		"/>
		<path style="fill:#BD262B;" d="M555.284,99.866l17.396,72.337c0,0,16.669,19.387,37.584,19.18
			c14.576-0.144,0.357,78.428-12.081,69.413c-21.311-15.447-41.465-46.92-52.272-63.154c-3.404-5.114-5.516-10.97-6.164-17.079
			l-7.21-77.806L555.284,99.866z"/>
		<path style="fill:#BD262B;" d="M671.542,188.307c2.721-0.389,9.901,4.784,9.901,4.784s1.49,6.638-10.842,8.873
			c-9.669,1.752-22.122,7.158-22.122,7.158S663.853,189.407,671.542,188.307z"/>
		<polygon style="fill:#F3B2A7;" points="666.707,342.233 662.221,349.416 655.95,354.269 676.798,367.081 678.545,360.092 
			679.71,353.104 		"/>
		<path style="fill:#BD262B;" d="M607.276,188.572c-2.703-0.403-9.901,1.197-9.901,1.197s-1.49,8.421,10.843,10.656
			c9.669,1.752,22.122,7.158,22.122,7.158S614.958,189.719,607.276,188.572z"/>
		<path style="fill:#BD262B;" d="M673.011,203.95l10.745-9.29c0,0,11.26,8.545,16.888,29.403
			c5.424,20.102,12.912,30.541,11.174,60.337s-23.092,74.738-31.782,75.732l-17.629-11.876c0,0,18.374-62.366,20.361-67.58
			l-17.878-63.813L673.011,203.95z"/>
		<polygon style="fill:#BD262B;" points="658.452,188.307 657.771,186.599 653.343,187.687 653.201,189.301 645.561,203.652 		"/>
		<path style="fill:#BD262B;" d="M654.957,177.629c0,0,6.493,3.756,1.801,11.031c-2.453,3.802-11.785,13.82-12.992,18.915
			l4.712,1.547c0,0,20.071-8.444,27.069-11.351c6.64-2.759,4.945-11.311,2.011-13.663
			C674.625,181.756,654.957,177.629,654.957,177.629z"/>
		<path style="fill:#BD262B;" d="M620.063,185.158c0,0-1.49,3.894,1.308,6.625c2.798,2.731,13.825,12.573,13.825,12.573
			l-11.027-15.317v-0.832L620.063,185.158z"/>
		<path style="fill:#BD262B;" d="M621.933,179.455c0,0-3.431,5.554,0.017,10.419c2.617,3.692,13.638,12.605,14.845,17.701
			l-2.229,1.051c0,0-21.973-7.107-28.559-10.855c-6.337-3.607-4.945-11.311-2.012-13.663
			C606.929,181.756,621.933,179.455,621.933,179.455z"/>
		<polygon style="fill:#BD262B;" points="666.211,232.382 682.767,280.675 668.197,255.778 		"/>
		<path style="opacity:0.58;fill:#024386;" d="M626.237,360.131l11.253,18.622l-10.059,63.302h-10.133
			c0,0,11.137-36.364,8.608-32.181c-8.608,14.236-4.35-3.88-2.318-10.387C631.203,375.112,626.237,360.131,626.237,360.131z"/>
		<path style="fill:none;stroke:#FFF9E2;stroke-width:1.9864;stroke-linecap:round;stroke-miterlimit:10;" d="M650.984,203.458
			c0,0-6.451,3.516-2.507,19.074c3.944,15.559-0.762,29.349,0,38.543c0.762,9.194,4.298,13.781,1.469,23.51"/>
		<path style="fill:none;stroke:#FFF9E2;stroke-width:1.9864;stroke-linecap:round;stroke-miterlimit:10;" d="M627.718,201.968
			c0,0,6.451,5.005,2.507,20.564c-3.944,15.559,0.762,29.349,0,38.543c-0.762,9.194-6.057,31.134,0.115,42.453"/>
		<g>
			<path style="fill:#F3B2A7;" d="M618.359,149.57c0,0-1.409-6.376-5.736-2.889c-4.327,3.487-1.869,16.025,5.742,11.985"/>
			<path style="opacity:0.24;fill:#F3B2A7;" d="M618.359,149.57c0,0-1.409-6.376-5.736-2.889
				c-4.327,3.487-1.869,16.025,5.742,11.985"/>
		</g>
		<path style="fill:#F3B2A7;" d="M656.085,149.703c0,0,1.489-6.74,6.064-3.054c4.575,3.686,1.976,16.941-6.07,12.669"/>
		<path style="fill:#221E1F;" d="M664.396,131.814c0,0,0.646,5.93-2.934,5.002c-3.58-0.928-6.505,0.928-6.505,0.928
			s1.571-1.133,5.631,0.796C664.648,140.468,665.738,133.442,664.396,131.814z"/>
		<g>
			<path style="fill:#221E1F;" d="M639.768,128.631c3.58,0.928,2.934-5.002,2.934-5.002c0.768,0.931,0.738,3.627-0.186,5.405
				c1.167-0.466,3.162-0.988,5.421-0.402c3.58,0.928,2.934-5.002,2.934-5.002c1.343,1.628,0.252,8.655-3.808,6.726
				c-2.304-1.094-3.805-1.202-4.673-1.091c-0.707,1.191-1.86,1.868-3.495,1.091c-3.549-1.686-5.196-1.032-5.554-0.841
				C633.801,129.245,636.508,127.786,639.768,128.631z"/>
			<path style="fill:#221E1F;" d="M633.34,129.514c-0.045,0.026-0.077,0.046-0.077,0.046S633.288,129.542,633.34,129.514z"/>
		</g>
		<polygon style="fill:#BD262B;" points="573.708,188.783 572.575,172.718 576.831,176.272 		"/>
		<path style="fill:#BD262B;" d="M567.254,228.091c-4.435-6.556,27.886,18.012,27.886,18.012l-3.656,44.538l-3.221-38.665
			C588.263,251.977,573.858,237.854,567.254,228.091z"/>
	</g>
	<g>
		<g>
			<path style="fill:#F3B2A7;" d="M468.3,167.062c0,0,1.016-9.119-0.445-16.027c-1.462-6.907-3.089-8.278-4.371-14.171
				c-1.283-5.892-5.241-14.437-4.37-14.84c0.872-0.403,4.132-1.542,5.902,2.46c1.77,4.003,3.947,8.025,3.947,8.025l3.028-19.675
				c0,0,1.118-7.756,4.121-7.024c3.063,0.747-1.054,16.12,0.153,16.542c1.728,0.604,4.402-8.716,4.402-8.716
				s2.493-10.134,5.51-9.459c3.018,0.675-3.023,17.522-3.023,17.522s-0.43,2.942,1.27,1.949c1.701-0.993,5.488-14.737,8.317-14.673
				c2.829,0.064-1.712,11.365-1.712,11.365s-3.454,6.149-0.992,6.326c2.463,0.177,7.305-10.147,9.223-9.133
				c1.918,1.014-2.364,8.817-4.335,11.535c-1.971,2.718-3.97,7.081-4.578,10.747c-0.608,3.666-1.541,8.515-5.141,10.695l0.009,12.55
				L468.3,167.062z"/>
			<path style="opacity:0.24;fill:#F3B2A7;" d="M469.52,132.952c0,0,5.83,7.457,5.989,11.274l1.211-6.061
				C476.72,138.165,471.56,134.612,469.52,132.952z"/>
		</g>
		<path style="fill:#F3B2A7;" d="M367.374,172.649c0,0,0.248,26.32-2.731,28.555c0,0,14.898,8.442,30.789,0c0,0,0-20.112,0-25.823
			C395.432,169.67,367.374,172.649,367.374,172.649z"/>
		<path style="opacity:0.68;fill:#F3B2A7;" d="M375.834,180.843l-8.584,6.652c0,0,17.075,16.339,24.027,13.234
			c4.547-2.031,4.156-6.18,4.156-6.18v-10.232L375.834,180.843z"/>
		<path style="fill:#FFF9E2;" d="M382.111,201.122c-5.323,0.099-17.468-4.18-21.202-1.979c-2.932,1.728,2.613,13.359,2.613,13.359
			l6.658,35.424l13.547,11.292l16.581-26.19c0,0,6.76-27.06,0.885-32.776C397.768,196.923,386.932,201.031,382.111,201.122z"/>
		<path style="fill:#F3B2A7;" d="M359.247,155.334c1.416-14.092,9.311-26.098,25.93-24.659c25.555,2.215,23.977,44.95,10.218,58.016
			c-8.343,7.923-22.167,6.785-28.145-1.195C361.165,179.374,358.107,166.678,359.247,155.334z"/>
		<path style="opacity:0.24;fill:#F3B2A7;" d="M403.927,153.614c-1.148-5.532-2.177-10.906-4.982-15.111l-13.278,6.229
			c0,0-2.331,10.958-1.884,16.474c0.993,12.258,5.556,11.885,1.803,15.357c-3.033,2.806,1.86,10.103-1.321,17.527
			c4.56-0.62,11.766-3.876,13.764-7.796C402.862,176.817,406.499,166.015,403.927,153.614z"/>
		<path style="fill:#006E58;" d="M338.984,327.837c0,0-2.98,31.286-3.973,45.191c-0.993,13.905,1.986,69.027,1.986,69.027h35.294
			l10.059-60.089l8.072,60.089h37.206c0,0,4.221-85.415,0-102.3C423.406,322.871,338.984,327.837,338.984,327.837z"/>
		<path style="fill:#024386;" d="M364.99,198.224l17.165,56.849c0,0,12.143-41.195,13.624-56.352c0,0,18.871-4.221,26.816,11.918
			c6.267,12.729,5.146,82.094,5.711,106.024c0.132,5.578,8.893,32.259,1.196,38.715s-36.398,3.16-44.897,2.007
			c-43.398-5.889-34.265,11.358-45.439,1.582c-11.173-9.776-10.429-57.946-10.677-71.851c-0.248-13.905,1.242-53.385,2.731-61.082
			C332.711,218.337,334.201,196.734,364.99,198.224z"/>
		<path style="fill:#024386;" d="M404.904,204.619l7.309-4.182l38.3,16.404l14.539-62.195c0,0,23.871,1.131,23.871,1.131
			c-0.364,22.64,0,70.464-11.214,94.489c-1.688,3.615-5.52,5.819-9.181,7.406c-11.684,5.067-58.832-3.949-58.832-3.949
			L404.904,204.619z"/>
		<path style="fill:#F3B2A7;" d="M326.296,358.171c0,0-0.083,14.29-0.083,15.944s9.182,14.024,11.663,14.343
			c2.482,0.318-3.233-12.823-3.233-12.823l1.579-5.778l1.784,6.777c0.239,0.91,1.484,1.039,1.896,0.194
			c0.522-1.072,1.007-2.373,1.007-3.509c0-2.464-3.494-13.657-3.494-13.657L326.296,358.171z"/>
		<path style="fill:#024386;" d="M355.055,222.08l-4.992-22.324c0,0-21.521,4.527-26.361,26.315
			c-4.841,21.787-10.332,73.244-10.332,73.244l9.42,64.417l23.228-2.099l-2.673-68.501L355.055,222.08z"/>
		<polygon style="fill:#BD262B;" points="341.943,255.923 337.728,301.291 341.46,362.071 330.728,300.683 		"/>
		<path style="fill:#BD262B;" d="M425.833,240.311v16.087c0,0,39.349,7.585,46.791-0.993c0,0-21.677-3.169-32.755-7.81
			C427.62,242.463,425.833,240.311,425.833,240.311z"/>
		<path style="fill:#BD262B;" d="M450.514,216.841c0,0,7.357,2.82,11.95,6.172l-10.742-11.342L450.514,216.841z"/>
		<path style="fill:#221E1F;" d="M400.144,131.887c-13.437-13.725-36.797-5.428-41.645,7.792c-3.427,9.346-0.79,25.961,0,20.817
			c1.137-7.406,5.023-18.482,8.751-13.842c3.376,4.202,16.477,7.238,28.183-1.445c3.039-2.254,5.34,4.693,6.056,5.932
			c1.605,2.78,3.114,5.571,3,9.035c-0.238,7.242,1.383,6.184,1.667,2.81C406.438,159.612,407.428,136.642,400.144,131.887z"/>
		<g>
			<path style="fill:#F3B2A7;" d="M401.241,156.259c0,0,1.408-6.376,5.736-2.889c4.327,3.487,1.869,16.025-5.742,11.985"/>
			<path style="opacity:0.24;fill:#F3B2A7;" d="M401.241,156.259c0,0,1.408-6.376,5.736-2.889
				c4.327,3.487,1.869,16.025-5.742,11.985"/>
		</g>
		<path style="fill:#F3B2A7;" d="M363.515,156.392c0,0-1.489-6.74-6.064-3.054c-4.575,3.686-1.975,16.941,6.07,12.669"/>
		<path style="fill:#221E1F;" d="M395.4,125.912c-3.615-2.015-1.51,1.124-1.51,1.124s-12.498-5.336-11.234-3.932
			c1.264,1.404,2.528,2.493,2.528,2.493s-2.929-2.352-8.135-2.071c-4.337,0.234-2.236,0.955-1.413,1.189
			c-1.001-0.248-4.646-0.939-8.708,0.882c-4.775,2.141,0,1.861,0,1.861s-12.104,5.955-9.262,6.054
			c2.278,0.079,3.645-0.296,3.645-0.296l-2.944,4.634l12.943-1.523c-1.766,0.827-9.514,3.99-9.983,5.235
			c-1.194,3.172-4.317,8.13-1.789,7.244c8.683-3.043,1.414-8.017,21.807-8.091c14.256-0.051,19.303,4.494,19.303,4.494l-0.35-2.362
			l4.878,8.484C405.176,151.331,409.736,133.902,395.4,125.912z"/>
		<path style="opacity:0.54;fill:#006E58;" d="M395.009,421.871c-0.033-0.264-0.035-1.065-0.035-1.065
			c1.348,0.755,4.292,6.531,8.194,7.924c3.7,1.322-4.229-7.665-9.255-40.266l-0.559-17.05l-11.005,10.553l8.072,60.089h5.25h9.537
			C405.209,442.055,397.089,438.774,395.009,421.871z"/>
	</g>
	<g>
		<g>
			<path style="fill:#221E1F;" d="M518.203,213.527c0,0-0.435,5.606-1.78,10.771c-1.117,4.286-2.86,8.269-5.503,8.489
				c-5.827,0.485-10.483-7.121-7.183-12.3c3.299-5.179-4.793-6.312-9.001-5.017c-4.208,1.295-10.682-7.121-4.046-11.167
				c6.636-4.046-0.788-6.75-4.694-6.75c-5.609,0-10.458-12.281,2.428-19.307c6.419-3.501-6.421-2.132-6.959-7.115
				c-0.598-5.531,4.849-7.138,12.786-6.318c6.12,0.632-1.871-9.711,6.509-8.74c8.381,0.971,0.654-9.387,7.107-8.578
				c6.453,0.809,2.69-10.373,10.337-10.358c9.4,0.018,7.117,11.115,9.387,9.225c5.355-4.458,10.845-4.458,11.977,0
				c0.997,3.931,10.419-9.038,15.052-5.826c4.693,3.254-2.082,12.766,0,11.815c4.289-1.961,5.664,0.162,5.179,2.266
				c-0.485,2.104,7.233-3.725,11.232-0.725c3.232,2.424,3.098,5.791,0.098,8.979c-2.443,2.596,7.607,0,8.74,2.913
				c1.133,2.913-0.485,5.179-2.589,7.121c-2.104,1.942,10.182,2.502,11.8,7.519c1.618,5.017-0.994,11.448-7.754,12.874
				c-5.033,1.061-11.815-5.503-9.387-3.075c2.428,2.428,12.462,10.52,9.225,17.156c-3.237,6.636-10.52-3.722-9.549,0.647
				c0.971,4.37,10.034,14.081,6.798,20.878c-3.237,6.798-11.491,6.798-13.109,1.457c-1.618-5.341-2.913-2.59-2.913,1.133
				c0,3.722-6.474,3.075-8.092-1.295c-1.618-4.37-0.094,3.723-2.717,7.769c-2.623,4.046-13.434,7.769-15.878,3.561
				c-2.445-4.208-7.947-10.682-7.947-10.682L518.203,213.527z"/>
			<path style="fill:#221E1F;" d="M560.047,176.302c0,0,10.999,12.359,7.6,13.948s-2.661,6.342,0.652,12.058
				s-4.086,7.496-6.132,6.768c-2.046-0.728,2.23,5.643,0.42,11.469s-6.593,0.184-8.778,0.184s1.517,17.273-7.86,15.434
				c-9.377-1.839-26.342-18.292-26.342-18.292s-3.058,10.631-7.613,8.203c-4.555-2.428-1.2-12.636-2.731-13.732
				c-1.531-1.096-6.562,0.357-9.809-3.21c-3.729-4.097,4.586-11.209,6.042-11.58c1.457-0.372-11.41,1.085-11.653-5.227
				c-0.243-6.312,5.945-4.855,9.891-10.439c3.947-5.584,17.056-12.867,17.056-12.867L560.047,176.302z"/>
			<path style="fill:#F3B2A7;" d="M517.008,205.434c0,0,2.632,29.618-0.675,33.016c-3.308,3.399-6.707-1.214-14.232-1.214
				c-7.526,0-18.784,13.838-18.784,13.838l2.276,18.45l11.896,73.154l63.767,1.295c0,0,8.491-39.18,10.034-52.438
				c1.833-15.739,5.098-50.658,5.098-50.658s-12.867-6.069-17.965-0.971c-3.892,3.892-10.273,2.035-11.653-0.243
				c-2.42-3.994-0.081-32.045-0.081-32.045h-24.196"/>
			<path style="opacity:0.6;fill:#F3B2A7;" d="M517.394,200.822l0.51,21.332c0,0,20.671,24.102,28.045,14.008v-22.96
				L517.394,200.822z"/>
			<path style="fill:#F3B2A7;" d="M556.38,186.648c-1.507-15-9.91-27.779-27.6-26.247c-27.201,2.357-25.521,47.845-10.876,61.753
				c8.88,8.433,23.595,7.222,29.958-1.272C554.339,212.237,557.594,198.723,556.38,186.648z"/>
			<path style="opacity:0.24;fill:#F3B2A7;" d="M555.742,184.22c-1.24-5.977-3.809-12.268-6.839-16.811l-13.86,9.643
				c0,0-2.518,11.839-2.035,17.798c1.073,13.243,6.002,12.841,1.948,16.592c-3.277,3.032,2.009,8.232-1.427,16.253
				c4.927-0.67,11.484-3.008,14.335-6.813C554.339,212.237,558.521,197.618,555.742,184.22z"/>
			<path style="fill:#EB143F;" d="M560.718,254.765l21.495-10.973c0,0,11.896,15.63,12.867,37.918
				c0.971,22.288-4.855,67.928-26.219,88.806c-21.364,20.878-17.284-23.306-17.284-23.306s6.383-28.161,4.55-34.473
				C554.295,306.426,560.718,254.765,560.718,254.765z"/>
			<path style="fill:#F3B2A7;" d="M511.991,194.398c0,0,0.323-6.68-4.891-4.399c-5.215,2.282-4.34,13.734,2.45,13.389"/>
			<path style="fill:#F3B2A7;" d="M551.557,192.971c0,0,1.333-6.682,6.323-3.943c4.99,2.739,3.093,14.068-3.638,13.116"/>
			<path style="opacity:0.24;fill:#F3B2A7;" d="M551.578,193.079c0,0,1.333-6.682,6.323-3.943c4.99,2.739,3.093,14.068-3.639,13.116
				"/>
			<g>
				<path style="fill:#F3B2A7;" d="M440.68,252.78c0,0-1.861-7.493-1.41-13.416c0.451-5.923,1.656-7.248,2.071-12.304
					c0.415-5.057,2.767-12.624,1.995-12.863c-0.772-0.239-3.618-0.827-4.649,2.708c-1.031,3.535-2.4,7.132-2.4,7.132l-4.712-16.073
					c0,0-1.795-6.345-4.218-5.4c-2.471,0.963,2.671,13.327,1.711,13.814c-1.374,0.696-4.64-6.78-4.64-6.78s-3.206-8.175-5.647-7.277
					c-2.442,0.898,4.469,14.278,4.469,14.278s0.686,2.406-0.843,1.767c-1.529-0.639-6.215-11.681-8.567-11.313
					c-2.352,0.368,2.691,9.288,2.691,9.288s3.564,4.745,1.53,5.166c-2.034,0.421-7.221-7.651-8.708-6.592
					c-1.487,1.059,2.952,7.091,4.898,9.139c1.946,2.048,4.098,5.464,5.013,8.454c0.915,2.99,2.232,6.931,5.476,8.348l1.387,10.468
					L440.68,252.78z"/>
				<path style="opacity:0.24;fill:#F3B2A7;" d="M435.871,224.467c0,0-4.033,6.867-3.742,10.068l-1.684-4.921
					C430.446,229.615,434.355,226.078,435.871,224.467z"/>
			</g>
			<path style="fill:#221E1F;" d="M560.047,182.136c0,0-0.973,10.751-7.296,8.114c-4.132-1.723-5.901-10.873-5.901-12.168
				c0-1.295-3.399,5.017-9.063,5.017c-5.665,0-7.445-6.474-6.474-11.329c0.971-4.855-1.78,7.283-7.769,6.474
				c-5.988-0.809-3.075-7.93-4.37-6.959c-1.295,0.971-6.41,18.749-12.074,18.714c-5.665-0.036-4.72-7.385-3.363-14.829
				c1.357-7.445,4.129-11.329,4.129-11.329l9.204-6.636l17.317-1.942l12.948,5.014l17.035,8.743L560.047,182.136z"/>
			<path style="fill:#EB143F;" d="M561.254,343.974c0,0,5.482-4.111,12.948,17.156c5.02,14.299,16.832,40.788,16.832,80.926H467.708
				c0,0,4.757-65.935,29.779-99.376C511.727,323.648,561.254,343.974,561.254,343.974z"/>
			<path style="opacity:0.17;fill:#B52346;" d="M509.903,435.576l-32.518,6.48h113.649c0-40.138-11.812-66.626-16.832-80.926
				c-5.929-16.891-10.607-17.773-12.281-17.42C576.238,383.761,551.68,427.251,509.903,435.576z"/>
			<path style="fill:#EB143F;" d="M486.805,255.445l-4.234-11.296c0,0-8.471,11.782-14.864,40.428
				c-6.393,28.647-2.023,51.952,4.532,50.253c6.555-1.699,29.375-38.357,29.375-38.357L486.805,255.445z"/>
			<path style="fill:#EB143F;" d="M471.026,289.533l-30.831-50.354l-18.207,6.312c0,0,11.896,51.71,20.878,68.218
				c8.982,16.508,24.161,28.149,31.718,19.692C482.14,324.945,471.026,289.533,471.026,289.533z"/>
			<path style="opacity:0.88;fill:#B52346;" d="M500.567,342.71c0,0-4.969,14.909-3.108,30.516c0,0,3.696-20.94,8.403-29.695
				L500.567,342.71z"/>
			<path style="opacity:0.88;fill:#B52346;" d="M511.658,342.71c0,0-4.374,21.483-1.864,44.265c0,0,2.849-30.31,7.213-42.852
				L511.658,342.71z"/>
			<path style="opacity:0.88;fill:#B52346;" d="M547.802,338.276c0,0,4.374,21.483,1.864,44.265c0,0-2.849-30.309-7.213-42.852
				L547.802,338.276z"/>
			<path style="opacity:0.88;fill:#B52346;" d="M556.377,335.796c0,0,6.395,15.258,7.885,32.49c0,0-6.563-22.016-11.637-30.658
				L556.377,335.796z"/>
			<path style="opacity:0.88;fill:#B52346;" d="M526.932,343.974c0,0-2.324,21.8,2.328,44.243c0,0-0.029-30.443,3.13-43.342
				L526.932,343.974z"/>
			<path style="opacity:0.88;fill:#B52346;" d="M572.081,308.368V285.05l-9.913,58.924c0,0,5.266-0.593,9.913,11.639V340.53
				c1.734,0.254,3.679,0.286,4.306-0.667C577.601,338.018,569.396,333.401,572.081,308.368z"/>
			<path style="opacity:0.88;fill:#B52346;" d="M489.214,287.528c0,0-2.04,5.127-2.554,14.661
				c-0.951,17.644-17.282,36.553-5.75,24.316c19.924-21.142,15.137-37.084,15.137-37.084"/>
			<path style="fill:#EB143F;" d="M478.551,250.832c0,0,7.283-20.606,31.074-12.974c0,0,9.906,57.886,26.074,63.955
				c16.168,6.069-5.848,25.976-5.848,25.976l-32.364,14.89L478.551,250.832z"/>
			<path style="opacity:0.88;fill:#B52346;" d="M535.7,307.64l-3.655-7.793c0,0-15.037,16.29-38.161,23.881l2.312,12.683
				l24.112-16.079L535.7,307.64z"/>
			<path style="fill:#EB143F;" d="M495.534,330.665c0,0,26.217-19.562,36.511-30.819c16.586-18.136,19.533-57.996,19.533-57.996
				s18.012-11.409,30.636,1.942c12.624,13.352-9.962,39.012-9.962,39.012l-10.997,61.17l-63.767-1.295L495.534,330.665z"/>
			<path style="fill:#FFF9E2;" d="M495.416,338.742c0,0,20.191,5.356,68.225,0l-1.473,5.232c0,0-49.174,6.07-64.68-1.295
				L495.416,338.742z"/>
			<polygon style="opacity:0.88;fill:#B52346;" points="466.171,297.697 467.708,284.577 463.689,277.359 			"/>
		</g>
		<path style="fill:#FA9900;" d="M516.332,238.451c0,0,4.401,26.348,14.661,26.05c9.798-0.284,15.776-24.836,15.776-24.836
			l0.279,0.353c0,0-3.633,29.298-16.7,29.298c-11.86,0-14.184-30.122-14.184-30.122L516.332,238.451z"/>
	</g>
</g>
</svg>
