<?xml version="1.0" encoding="utf-8"?>
<!-- Generator: Adobe Illustrator 27.5.0, SVG Export Plug-In . SVG Version: 6.00 Build 0)  -->
<svg version="1.1" xmlns="http://www.w3.org/2000/svg" xmlns:xlink="http://www.w3.org/1999/xlink" x="0px" y="0px"
	 viewBox="0 0 500 500" style="enable-background:new 0 0 500 500;" xml:space="preserve">
<g id="Background_Complete">
	<g>
		<rect x="416.779" y="398.494" style="fill:#EBEBEB;" width="33.122" height="0.25"/>
		<rect x="322.527" y="401.208" style="fill:#EBEBEB;" width="8.693" height="0.25"/>
		<rect x="396.586" y="389.208" style="fill:#EBEBEB;" width="19.192" height="0.25"/>
		<rect x="52.459" y="390.888" style="fill:#EBEBEB;" width="43.193" height="0.25"/>
		<rect x="104.556" y="390.888" style="fill:#EBEBEB;" width="6.333" height="0.25"/>
		<rect x="131.471" y="395.111" style="fill:#EBEBEB;" width="93.676" height="0.25"/>
		<path style="fill:#EBEBEB;" d="M237.014,337.8H43.915c-3.147,0-5.708-2.561-5.708-5.708V60.66c0-3.147,2.561-5.708,5.708-5.708
			h193.099c3.146,0,5.707,2.561,5.707,5.708v271.432C242.721,335.239,240.16,337.8,237.014,337.8z M43.915,55.203
			c-3.01,0-5.458,2.448-5.458,5.458v271.432c0,3.01,2.448,5.458,5.458,5.458h193.099c3.009,0,5.457-2.448,5.457-5.458V60.66
			c0-3.009-2.448-5.458-5.457-5.458H43.915z"/>
		<path style="fill:#EBEBEB;" d="M453.31,337.8H260.212c-3.147,0-5.707-2.561-5.707-5.708V60.66c0-3.147,2.561-5.708,5.707-5.708
			H453.31c3.148,0,5.708,2.561,5.708,5.708v271.432C459.019,335.239,456.458,337.8,453.31,337.8z M260.212,55.203
			c-3.009,0-5.457,2.448-5.457,5.458v271.432c0,3.01,2.448,5.458,5.457,5.458H453.31c3.01,0,5.458-2.448,5.458-5.458V60.66
			c0-3.009-2.448-5.458-5.458-5.458H260.212z"/>
		<rect y="382.398" style="fill:#EBEBEB;" width="500" height="0.25"/>
	</g>
	<g>
		<g>
			<g>
				<path style="fill:#F5F5F5;" d="M226.411,382.398l54.727-37.039c5.599-3.789,14.676-3.789,20.274,0l54.727,37.039H226.411z"/>
				<path style="fill:#EBEBEB;" d="M301.412,345.359c-3.495-2.365-8.346-3.253-12.86-2.665c-2.043,5.258-3.356,12.929,4.129,16.512
					c11.989,5.739-2.859,11.639-2.859,17.415c0,1.868,0.977,3.891,2.291,5.777h64.025L301.412,345.359z"/>
			</g>
			<g>
				<g>
					<path style="fill:#F5F5F5;" d="M30.789,382.398l54.727-57.989c5.599-5.932,14.676-5.932,20.274,0l54.727,57.989H30.789z"/>
					<path style="fill:#EBEBEB;" d="M105.789,324.409c-3.495-3.703-8.346-5.093-12.86-4.173c-2.043,8.232-3.356,20.243,4.129,25.852
						c11.989,8.985-2.859,18.222-2.859,27.266c0,2.924,0.977,6.091,2.291,9.044h64.025L105.789,324.409z"/>
				</g>
				<g>
					<path style="fill:#F0F0F0;" d="M129.675,382.296l28.735-30.449c2.94-3.115,7.706-3.115,10.646,0l28.736,30.449H129.675z"/>
					<path style="fill:#E0E0E0;" d="M169.056,351.847c-1.835-1.945-4.382-2.674-6.752-2.191c-1.073,4.323-1.762,10.629,2.168,13.574
						c6.295,4.718-1.501,9.568-1.501,14.317c0,1.535,0.513,3.198,1.203,4.749h33.618L169.056,351.847z"/>
				</g>
				<g>
					<path style="fill:#F0F0F0;" d="M399.282,382.296l28.736-30.449c2.94-3.115,7.706-3.115,10.646,0l28.736,30.449H399.282z"/>
					<path style="fill:#E0E0E0;" d="M438.663,351.847c-1.835-1.945-4.382-2.674-6.752-2.191c-1.073,4.323-1.762,10.629,2.168,13.574
						c6.295,4.718-1.501,9.568-1.501,14.317c0,1.535,0.513,3.198,1.203,4.749h33.618L438.663,351.847z"/>
				</g>
				<g>
					<path style="fill:#FAFAFA;" d="M184.787,382.296l28.736-63.626c2.94-6.509,7.706-6.509,10.646,0l28.736,63.626H184.787z"/>
					<path style="fill:#F0F0F0;" d="M224.168,318.67c-1.835-4.063-4.382-5.589-6.752-4.578c-1.073,9.033-1.762,22.21,2.168,28.366
						c6.295,9.859-1.502,19.993-1.502,29.916c0,3.208,0.513,6.684,1.203,9.923h33.618L224.168,318.67z"/>
				</g>
				<g>
					<path style="fill:#FAFAFA;" d="M351.333,382.296l28.736-63.626c2.94-6.509,7.706-6.509,10.646,0l28.736,63.626H351.333z"/>
					<path style="fill:#E0E0E0;" d="M390.714,318.67c-1.835-4.063-4.382-5.589-6.752-4.578c-1.073,9.033-1.762,22.21,2.168,28.366
						c6.295,9.859-1.501,19.993-1.501,29.916c0,3.208,0.513,6.684,1.203,9.923h33.618L390.714,318.67z"/>
				</g>
				<g>
					<path style="fill:#FAFAFA;" d="M31.942,382.296l22.53-49.885c2.305-5.103,6.042-5.103,8.347,0l22.53,49.885H31.942z"/>
					<path style="fill:#F0F0F0;" d="M62.818,332.411c-1.439-3.186-3.436-4.382-5.294-3.59c-0.841,7.082-1.382,17.414,1.7,22.239
						c4.935,7.73-1.177,15.675-1.177,23.455c0,2.516,0.402,5.24,0.943,7.78h26.358L62.818,332.411z"/>
				</g>
			</g>
		</g>
		<path style="fill:#F5F5F5;" d="M253.376,250.173c-5.308,2.091-0.913-16.303-16.362-15.905
			c-15.449,0.398-16.835,13.122-16.835,13.122s-10.945-9.145-19.293-3.181c-8.348,5.964-3.369,8.35-10.232,8.35
			c-6.864,0-15.181-0.033-16.39,3.96c-1.209,3.993,101.776,5.153,101.776,0c0-5.153-5.169-3.96-8.35-3.96
			S266.497,245.004,253.376,250.173z"/>
		<path style="fill:#F0F0F0;" d="M163.528,93c8.899,3.506,1.531-27.333,27.432-26.667c25.901,0.667,28.225,22,28.225,22
			S237.536,73,251.532,83s5.648,14,17.155,14c11.508,0,25.452-0.055,27.48,6.639c2.028,6.694-170.639,8.639-170.639,0
			s8.667-6.639,14-6.639S141.528,84.333,163.528,93z"/>
		<path style="fill:#F0F0F0;" d="M79.763,203.356c5.308,2.091,0.913-16.303,16.362-15.905c15.449,0.398,16.834,13.122,16.834,13.122
			s10.945-9.146,19.293-3.181c8.348,5.964,3.368,8.35,10.232,8.35s15.181-0.033,16.39,3.96c1.209,3.993-101.776,5.153-101.776,0
			c0-5.153,5.169-3.96,8.35-3.96C68.63,205.742,66.642,198.187,79.763,203.356z"/>
		<path style="fill:#F5F5F5;" d="M429.517,180.984c-5.308,2.091-0.913-16.303-16.362-15.905
			c-15.448,0.398-16.835,13.122-16.835,13.122s-10.945-9.145-19.293-3.181c-8.348,5.964-3.369,8.35-10.232,8.35
			c-6.864,0-15.181-0.033-16.39,3.96c-1.209,3.993,101.776,5.153,101.776,0c0-5.153-5.169-3.96-8.35-3.96
			S442.638,175.814,429.517,180.984z"/>
		<g>
			<g>
				<g>
					<path style="fill:#E0E0E0;" d="M337.946,372.439c-7.83-12.383-15.659-24.766-23.489-37.149
						c-0.524-0.828-0.137-2.309,0.605-2.309c7.141,0,14.283,0,21.424,0c-7.343-11.613-14.686-23.227-22.029-34.84
						c-0.524-0.828-0.137-2.309,0.605-2.309c7.141,0,14.283,0,21.424,0c-7.343-11.614-14.686-23.227-22.029-34.84
						c-0.524-0.828-0.137-2.309,0.605-2.309c7.141,0,14.283,0,21.424,0c-7.343-11.613-14.686-23.227-22.029-34.84
						c-0.524-0.828-0.137-2.309,0.605-2.309c7.141,0,14.283,0,21.424,0c-7.343-11.613-14.686-23.227-22.029-34.84
						c-0.524-0.828-0.137-2.309,0.605-2.309c7.141,0,14.283,0,21.424,0c-7.343-11.613-14.686-23.227-22.029-34.84
						c-0.524-0.828-0.137-2.309,0.605-2.309c7.141,0,14.283,0,21.424,0c-7.343-11.613-14.686-23.227-22.029-34.84
						c-0.779-1.232,0.43-3.145,1.209-1.913c7.829,12.383,15.659,24.766,23.488,37.149c0.004,0.007,0.007,0.014,0.011,0.021
						c0.003,0.005,0.006,0.011,0.009,0.017c0.272,0.458,0.281,1.001,0.143,1.442c-0.103,0.446-0.346,0.798-0.727,0.822
						c-0.009,0.001-0.018,0.003-0.027,0.004c-0.004,0-0.008,0.002-0.013,0.002c-7.141,0-14.283,0-21.424,0
						c7.343,11.614,14.686,23.227,22.029,34.841c0.004,0.007,0.007,0.014,0.011,0.021c0.003,0.005,0.006,0.011,0.009,0.017
						c0.272,0.458,0.281,1.001,0.143,1.442c-0.103,0.446-0.346,0.798-0.727,0.822c-0.009,0.001-0.018,0.003-0.027,0.004
						c-0.004,0-0.008,0.002-0.013,0.002c-7.141,0-14.283,0-21.424,0c7.343,11.613,14.686,23.227,22.029,34.841
						c0.004,0.007,0.007,0.014,0.011,0.021c0.003,0.005,0.006,0.011,0.009,0.017c0.272,0.458,0.281,1.001,0.143,1.442
						c-0.103,0.446-0.346,0.798-0.727,0.822c-0.009,0.001-0.018,0.003-0.027,0.004c-0.004,0-0.008,0.002-0.013,0.002
						c-7.141,0-14.283,0-21.424,0c7.343,11.613,14.686,23.227,22.029,34.841c0.004,0.007,0.007,0.014,0.011,0.021
						c0.003,0.005,0.006,0.011,0.009,0.017c0.272,0.458,0.281,1.001,0.143,1.442c-0.103,0.446-0.346,0.798-0.727,0.823
						c-0.009,0.001-0.018,0.003-0.027,0.004c-0.004,0-0.008,0.002-0.013,0.002c-7.141,0-14.283,0-21.424,0
						c7.343,11.614,14.686,23.227,22.029,34.841c0.004,0.007,0.007,0.014,0.011,0.021c0.003,0.005,0.006,0.011,0.009,0.017
						c0.272,0.458,0.281,1.001,0.143,1.442c-0.103,0.446-0.346,0.799-0.728,0.823c-0.009,0.001-0.017,0.003-0.026,0.004
						c-0.005,0-0.008,0.002-0.013,0.002c-7.141,0-14.283,0-21.424,0c7.343,11.613,14.686,23.227,22.029,34.841
						c0.004,0.007,0.007,0.014,0.011,0.02c0.003,0.006,0.006,0.012,0.009,0.018c0.272,0.458,0.281,1.001,0.142,1.442
						c-0.103,0.446-0.346,0.798-0.727,0.822c-0.009,0.001-0.018,0.003-0.027,0.004c-0.004,0-0.008,0.002-0.013,0.002
						c-7.141,0-14.283,0-21.424,0c7.343,11.613,14.686,23.227,22.029,34.84C339.934,371.759,338.725,373.672,337.946,372.439z"/>
					<path style="fill:#E0E0E0;" d="M338.55,373.511c0.38,0,0.668-0.22,0.873-0.55c0.009-0.012,0.017-0.026,0.025-0.038
						c0.013-0.023,0.028-0.044,0.041-0.068c0.206-0.324,0.343-0.777,0.343-1.372c0-10.687,0-21.373,0-32.06
						c0-46.688,0-93.377,0-140.065c0-29.306,0-58.612,0-87.918c0-1.099-0.589-2.029-1.283-2.029c-7.829,0-15.659,0-23.489,0
						c-0.695,0-1.283,0.932-1.283,2.029c0,10.687,0,21.373,0,32.06c0,46.689,0,93.377,0,140.065c0,29.306,0,58.612,0,87.918
						c0,1.099,0.589,2.029,1.283,2.029C322.891,373.511,330.721,373.511,338.55,373.511z M337.268,369.454
						c-6.974,0-13.949,0-20.923,0c0-10.011,0-20.021,0-30.031c0-46.688,0-93.377,0-140.065c0-28.63,0-57.26,0-85.89
						c6.974,0,13.949,0,20.923,0c0,10.011,0,20.021,0,30.031c0,46.689,0,93.377,0,140.065
						C337.268,312.194,337.268,340.824,337.268,369.454z"/>
				</g>
				<g>
					<path style="fill:#F0F0F0;" d="M315.666,372.439c7.829-12.383,15.659-24.766,23.488-37.149
						c0.524-0.828,0.137-2.309-0.605-2.309c-7.141,0-14.283,0-21.424,0c7.343-11.613,14.686-23.227,22.029-34.84
						c0.524-0.828,0.137-2.309-0.605-2.309c-7.141,0-14.283,0-21.424,0c7.343-11.614,14.686-23.227,22.029-34.84
						c0.524-0.828,0.137-2.309-0.605-2.309c-7.141,0-14.283,0-21.424,0c7.343-11.613,14.686-23.227,22.029-34.84
						c0.524-0.828,0.137-2.309-0.605-2.309c-7.141,0-14.283,0-21.424,0c7.343-11.613,14.686-23.227,22.029-34.84
						c0.524-0.828,0.137-2.309-0.605-2.309c-7.141,0-14.283,0-21.424,0c7.343-11.613,14.686-23.227,22.029-34.84
						c0.524-0.828,0.137-2.309-0.605-2.309c-7.141,0-14.283,0-21.424,0c7.343-11.613,14.686-23.227,22.029-34.84
						c0.779-1.232-0.43-3.145-1.209-1.913c-7.829,12.383-15.659,24.766-23.489,37.149c-0.004,0.007-0.007,0.014-0.011,0.021
						c-0.003,0.005-0.006,0.011-0.009,0.017c-0.272,0.458-0.281,1.001-0.143,1.442c0.103,0.446,0.346,0.798,0.727,0.822
						c0.009,0.001,0.018,0.003,0.027,0.004c0.004,0,0.008,0.002,0.013,0.002c7.141,0,14.283,0,21.424,0
						c-7.343,11.614-14.686,23.227-22.029,34.841c-0.004,0.007-0.007,0.014-0.011,0.021c-0.003,0.005-0.006,0.011-0.009,0.017
						c-0.272,0.458-0.281,1.001-0.143,1.442c0.103,0.446,0.346,0.798,0.727,0.822c0.009,0.001,0.018,0.003,0.027,0.004
						c0.004,0,0.008,0.002,0.013,0.002c7.141,0,14.283,0,21.424,0c-7.343,11.613-14.686,23.227-22.029,34.841
						c-0.004,0.007-0.007,0.014-0.011,0.021c-0.003,0.005-0.006,0.011-0.009,0.017c-0.272,0.458-0.281,1.001-0.143,1.442
						c0.103,0.446,0.346,0.798,0.727,0.822c0.009,0.001,0.018,0.003,0.027,0.004c0.004,0,0.008,0.002,0.013,0.002
						c7.141,0,14.283,0,21.424,0c-7.343,11.613-14.686,23.227-22.029,34.841c-0.004,0.007-0.007,0.014-0.011,0.021
						c-0.003,0.005-0.006,0.011-0.009,0.017c-0.272,0.458-0.281,1.001-0.143,1.442c0.103,0.446,0.346,0.798,0.727,0.823
						c0.009,0.001,0.018,0.003,0.027,0.004c0.004,0,0.008,0.002,0.013,0.002c7.141,0,14.283,0,21.424,0
						c-7.343,11.614-14.686,23.227-22.029,34.841c-0.004,0.007-0.007,0.014-0.011,0.021c-0.003,0.005-0.006,0.011-0.009,0.017
						c-0.272,0.458-0.281,1.001-0.143,1.442c0.103,0.446,0.346,0.799,0.728,0.823c0.009,0.001,0.017,0.003,0.026,0.004
						c0.005,0,0.008,0.002,0.013,0.002c7.141,0,14.283,0,21.424,0c-7.343,11.613-14.686,23.227-22.029,34.841
						c-0.004,0.007-0.007,0.014-0.011,0.02c-0.003,0.006-0.006,0.012-0.009,0.018c-0.272,0.458-0.281,1.001-0.142,1.442
						c0.103,0.446,0.346,0.798,0.727,0.822c0.009,0.001,0.018,0.003,0.027,0.004c0.004,0,0.008,0.002,0.013,0.002
						c7.141,0,14.283,0,21.424,0c-7.343,11.613-14.686,23.227-22.029,34.84C313.678,371.759,314.887,373.672,315.666,372.439z"/>
					<path style="fill:#F0F0F0;" d="M338.55,373.511c0.693,0,1.283-0.93,1.283-2.029c0-29.306,0-58.612,0-87.918
						c0-46.689,0-93.377,0-140.065c0-10.687,0-21.373,0-32.06c0-1.097-0.588-2.029-1.283-2.029c-7.829,0-15.659,0-23.489,0
						c-0.693,0-1.283,0.93-1.283,2.029c0,29.306,0,58.612,0,87.918c0,46.688,0,93.377,0,140.065c0,10.687,0,21.373,0,32.06
						c0,0.595,0.137,1.048,0.343,1.372c0.013,0.024,0.027,0.045,0.041,0.068c0.009,0.012,0.017,0.026,0.025,0.038
						c0.205,0.33,0.493,0.55,0.873,0.55C322.891,373.511,330.721,373.511,338.55,373.511z M316.344,283.565
						c0-46.689,0-93.377,0-140.065c0-10.01,0-20.021,0-30.031c6.974,0,13.949,0,20.923,0c0,28.63,0,57.26,0,85.89
						c0,46.688,0,93.377,0,140.065c0,10.01,0,20.021,0,30.031c-6.974,0-13.949,0-20.923,0
						C316.344,340.824,316.344,312.194,316.344,283.565z"/>
				</g>
			</g>
			<rect x="210.467" y="374.549" style="fill:#E0E0E0;" width="135.969" height="7.849"/>
			<rect x="204.762" y="370.837" style="fill:#E6E6E6;" width="141.674" height="4.634"/>
		</g>
	</g>
</g>
<g id="Background_Simple" style="display:none;">
	<g style="display:inline;">
		<path style="fill:#407BFF;" d="M306.941,70.547c32.43-1.086,125.895,22.387,125.895,97.142c0,77.905-55.282,97.596-130.312,97.596
			c-70.067,0-52.345,77.017-147.12,77.017c-80.244,0-144.115-137.515-12.903-184.095C224.191,129.206,210.206,73.787,306.941,70.547
			z"/>
		<path style="opacity:0.9;fill:#FFFFFF;" d="M306.941,70.547c32.43-1.086,125.895,22.387,125.895,97.142
			c0,77.905-55.282,97.596-130.312,97.596c-70.067,0-52.345,77.017-147.12,77.017c-80.244,0-144.115-137.515-12.903-184.095
			C224.191,129.206,210.206,73.787,306.941,70.547z"/>
	</g>
</g>
<g id="Shadow">
	<ellipse id="_x3C_Path_x3E__1_" style="fill:#F5F5F5;" cx="250" cy="412.391" rx="193.889" ry="11.323"/>
</g>
<g id="Rocket">
	<g>
		<g>
			<polygon style="fill:#407BFF;" points="258.495,340.449 264.116,366.242 258.495,353.346 260.641,384.615 253.87,355.996 
				253.87,400.515 248.64,360.236 243.443,396.275 243.353,355.289 238.582,382.495 238.582,353.876 229.929,372.249 
				238.582,340.449 			"/>
			<polygon style="opacity:0.5;fill:#FFFFFF;" points="242.59,340.449 238.582,363.306 238.582,353.876 238.582,340.449 			"/>
			<polygon style="opacity:0.8;fill:#FFFFFF;" points="243.443,377.086 243.362,340.449 253.87,340.449 253.87,355.996 
				253.87,381.325 248.639,341.046 			"/>
			<polygon style="opacity:0.3;fill:#FFFFFF;" points="254.732,340.449 258.495,340.449 259.125,343.343 260.058,356.933 
				258.495,353.346 258.785,357.582 			"/>
		</g>
		<g>
			<polygon style="fill:#407BFF;" points="279.448,335.611 276.424,349.482 279.448,342.546 278.293,359.362 281.935,343.971 
				281.935,367.913 284.747,346.251 287.542,365.632 287.59,343.591 290.156,358.222 290.156,342.831 294.809,352.712 
				290.156,335.611 			"/>
			<polygon style="opacity:0.5;fill:#FFFFFF;" points="288.001,335.611 290.156,347.902 290.156,342.831 290.156,335.611 			"/>
			<polygon style="opacity:0.2;fill:#FFFFFF;" points="287.542,355.313 287.585,335.611 281.935,335.611 281.935,343.971 
				281.935,357.593 284.747,335.932 			"/>
			<polygon style="opacity:0.3;fill:#FFFFFF;" points="281.471,335.611 279.448,335.611 279.109,337.167 278.607,344.475 
				279.448,342.546 279.291,344.824 			"/>
		</g>
		<g>
			<polygon style="fill:#407BFF;" points="205.29,335.611 202.267,349.482 205.29,342.546 204.136,359.362 207.777,343.971 
				207.777,367.913 210.59,346.251 213.385,365.632 213.433,343.591 215.999,358.222 215.999,342.831 220.652,352.712 
				215.999,335.611 			"/>
			<polygon style="opacity:0.5;fill:#FFFFFF;" points="213.843,335.611 215.999,347.902 215.999,342.831 215.999,335.611 			"/>
			<polygon style="opacity:0.2;fill:#FFFFFF;" points="213.385,355.313 213.428,335.611 207.777,335.611 207.777,343.971 
				207.777,357.593 210.59,335.932 			"/>
			<polygon style="opacity:0.3;fill:#FFFFFF;" points="207.314,335.611 205.29,335.611 204.951,337.167 204.449,344.475 
				205.29,342.546 205.134,344.824 			"/>
		</g>
		<g>
			<g>
				<path style="fill:#407BFF;" d="M312.025,315.461L249.67,204.644c-0.961-1.708-3.421-1.708-4.382,0l-62.355,110.816
					c-0.943,1.676,0.268,3.747,2.191,3.747h124.71C311.757,319.208,312.968,317.137,312.025,315.461z"/>
				<path style="opacity:0.3;" d="M312.025,315.461L249.67,204.644c-0.961-1.708-3.421-1.708-4.382,0l-62.355,110.816
					c-0.943,1.676,0.268,3.747,2.191,3.747h124.71C311.757,319.208,312.968,317.137,312.025,315.461z"/>
			</g>
			<g>
				<g>
					<g>
						<path style="fill:#263238;" d="M277.13,335.766l3.029-12.43h10.916l3.029,12.43
							C288.86,337.938,282.788,338.109,277.13,335.766z"/>
						<path style="opacity:0.2;fill:#FFFFFF;" d="M291.075,323.335c0,0,0.455,1.866,0.709,2.91
							c-3.93,1.141-8.195,1.207-12.335,0.003l0.71-2.913H291.075z"/>
						<path style="opacity:0.4;fill:#FFFFFF;" d="M292.545,329.369c0.192,0.788,0.385,1.583,0.569,2.335
							c-4.756,1.472-9.966,1.558-14.994-0.002l0.569-2.335C283.348,330.288,288.044,330.256,292.545,329.369z"/>
					</g>
					<g>
						<path style="fill:#407BFF;" d="M274.09,322.457c7.685,3.183,15.932,2.95,23.054,0v-92.319
							c0-10.868-4.405-20.707-11.527-27.829c-7.122,7.122-11.527,16.961-11.527,27.829V322.457z"/>
						<g>
							<path style="fill:#407BFF;" d="M297.144,230.138c0,0,0,77.621,0,87.027c-7.251,2.506-15.336,2.674-23.054,0.002
								c0-9.402,0-87.029,0-87.029c0-10.868,4.405-20.707,11.527-27.829C292.739,209.431,297.144,219.27,297.144,230.138z"/>
							<path style="opacity:0.4;fill:#FFFFFF;" d="M297.144,230.138c0,0,0,77.621,0,87.027c-7.251,2.506-15.336,2.674-23.054,0.002
								c0-9.402,0-87.029,0-87.029c0-10.868,4.405-20.707,11.527-27.829C292.739,209.431,297.144,219.27,297.144,230.138z"/>
						</g>
						<g>
							<path style="fill:#407BFF;" d="M297.144,230.138c0,0,0,39.298,0,65.358c-7.354,2.098-15.315,2.215-23.054,0.004
								c0-26.061,0-65.362,0-65.362c0-10.868,4.405-20.707,11.527-27.829C292.739,209.431,297.144,219.27,297.144,230.138z"/>
							<path style="opacity:0.6;fill:#FFFFFF;" d="M297.144,230.138c0,0,0,39.298,0,65.358c-7.354,2.098-15.315,2.215-23.054,0.004
								c0-26.061,0-65.362,0-65.362c0-10.868,4.405-20.707,11.527-27.829C292.739,209.431,297.144,219.27,297.144,230.138z"/>
						</g>
						<g>
							<path style="fill:#407BFF;" d="M297.144,230.138c0,0,0,15.927,0,34.225c-7.354,2.098-15.315,2.215-23.054,0.004
								c0-18.3,0-34.229,0-34.229c0-10.868,4.405-20.707,11.527-27.829C292.739,209.431,297.144,219.27,297.144,230.138z"/>
							<path style="opacity:0.8;fill:#FFFFFF;" d="M297.144,230.138c0,0,0,15.927,0,34.225c-7.354,2.098-15.315,2.215-23.054,0.004
								c0-18.3,0-34.229,0-34.229c0-10.868,4.405-20.707,11.527-27.829C292.739,209.431,297.144,219.27,297.144,230.138z"/>
						</g>
						<g>
							<path style="fill:#407BFF;" d="M297.144,230.138c0,0,0,1.46,0,3.992c-7.354,2.098-15.315,2.215-23.054,0.004
								c0-2.534,0-3.996,0-3.996c0-10.868,4.405-20.707,11.527-27.829C292.739,209.431,297.144,219.27,297.144,230.138z"/>
							<path style="opacity:0.4;fill:#FFFFFF;" d="M297.144,230.138c0,0,0,1.46,0,3.992c-7.354,2.098-15.315,2.215-23.054,0.004
								c0-2.534,0-3.996,0-3.996c0-10.868,4.405-20.707,11.527-27.829C292.739,209.431,297.144,219.27,297.144,230.138z"/>
						</g>
					</g>
				</g>
				<g>
					<g>
						<path style="fill:#263238;" d="M202.973,335.766l3.029-12.43h10.916l3.029,12.43
							C214.703,337.938,208.631,338.109,202.973,335.766z"/>
						<path style="opacity:0.2;fill:#FFFFFF;" d="M216.918,323.335c0,0,0.455,1.866,0.709,2.91
							c-3.93,1.141-8.195,1.207-12.335,0.003l0.71-2.913H216.918z"/>
						<path style="opacity:0.4;fill:#FFFFFF;" d="M218.388,329.369c0.192,0.788,0.385,1.583,0.569,2.335
							c-4.756,1.472-9.966,1.558-14.994-0.002l0.569-2.335C209.191,330.288,213.887,330.256,218.388,329.369z"/>
					</g>
					<g>
						<path style="fill:#407BFF;" d="M199.933,322.457c7.685,3.183,15.932,2.95,23.054,0v-92.319
							c0-10.868-4.405-20.707-11.527-27.829c-7.122,7.122-11.527,16.961-11.527,27.829V322.457z"/>
						<g>
							<path style="fill:#407BFF;" d="M222.987,230.138c0,0,0,77.621,0,87.027c-7.251,2.506-15.336,2.674-23.054,0.002
								c0-9.402,0-87.029,0-87.029c0-10.868,4.405-20.707,11.527-27.829C218.582,209.431,222.987,219.27,222.987,230.138z"/>
							<path style="opacity:0.4;fill:#FFFFFF;" d="M222.987,230.138c0,0,0,77.621,0,87.027c-7.251,2.506-15.336,2.674-23.054,0.002
								c0-9.402,0-87.029,0-87.029c0-10.868,4.405-20.707,11.527-27.829C218.582,209.431,222.987,219.27,222.987,230.138z"/>
						</g>
						<g>
							<path style="fill:#407BFF;" d="M222.987,230.138c0,0,0,39.298,0,65.358c-7.355,2.098-15.315,2.215-23.054,0.004
								c0-26.061,0-65.362,0-65.362c0-10.868,4.405-20.707,11.527-27.829C218.582,209.431,222.987,219.27,222.987,230.138z"/>
							<path style="opacity:0.6;fill:#FFFFFF;" d="M222.987,230.138c0,0,0,39.298,0,65.358c-7.355,2.098-15.315,2.215-23.054,0.004
								c0-26.061,0-65.362,0-65.362c0-10.868,4.405-20.707,11.527-27.829C218.582,209.431,222.987,219.27,222.987,230.138z"/>
						</g>
						<g>
							<path style="fill:#407BFF;" d="M222.987,230.138c0,0,0,15.927,0,34.225c-7.355,2.098-15.315,2.215-23.054,0.004
								c0-18.3,0-34.229,0-34.229c0-10.868,4.405-20.707,11.527-27.829C218.582,209.431,222.987,219.27,222.987,230.138z"/>
							<path style="opacity:0.8;fill:#FFFFFF;" d="M222.987,230.138c0,0,0,15.927,0,34.225c-7.355,2.098-15.315,2.215-23.054,0.004
								c0-18.3,0-34.229,0-34.229c0-10.868,4.405-20.707,11.527-27.829C218.582,209.431,222.987,219.27,222.987,230.138z"/>
						</g>
						<g>
							<path style="fill:#407BFF;" d="M222.987,230.138c0,0,0,1.46,0,3.992c-7.355,2.098-15.315,2.215-23.054,0.004
								c0-2.534,0-3.996,0-3.996c0-10.868,4.405-20.707,11.527-27.829C218.582,209.431,222.987,219.27,222.987,230.138z"/>
							<path style="opacity:0.4;fill:#FFFFFF;" d="M222.987,230.138c0,0,0,1.46,0,3.992c-7.355,2.098-15.315,2.215-23.054,0.004
								c0-2.534,0-3.996,0-3.996c0-10.868,4.405-20.707,11.527-27.829C218.582,209.431,222.987,219.27,222.987,230.138z"/>
						</g>
					</g>
				</g>
			</g>
			<g>
				<g>
					<path style="fill:#263238;" d="M234.837,342.905l4.89-20.067h17.622l4.89,20.067
						C253.774,346.411,243.971,346.688,234.837,342.905z"/>
					<path style="opacity:0.2;fill:#FFFFFF;" d="M257.35,322.838c0,0,0.735,3.013,1.145,4.698
						c-6.345,1.842-13.23,1.948-19.913,0.004l1.146-4.702H257.35z"/>
					<path style="opacity:0.4;fill:#FFFFFF;" d="M259.723,332.578c0.31,1.272,0.622,2.555,0.919,3.77
						c-7.678,2.377-16.089,2.515-24.206-0.004l0.919-3.769C244.876,334.062,252.457,334.01,259.723,332.578z"/>
				</g>
				<g>
					<path style="fill:#407BFF;" d="M229.929,321.419c12.406,5.139,25.72,4.763,37.218,0V172.381
						c0-17.545-7.111-33.429-18.609-44.926c-11.498,11.498-18.609,27.382-18.609,44.926L229.929,321.419z"/>
					<g>
						<path style="fill:#407BFF;" d="M267.147,172.381c0,0,0,125.31,0,140.495c-11.705,4.046-24.758,4.317-37.218,0.003
							c0-15.179,0-140.498,0-140.498c0-17.545,7.112-33.429,18.609-44.926C260.036,138.952,267.147,154.836,267.147,172.381z"/>
						<path style="opacity:0.4;fill:#FFFFFF;" d="M267.147,172.381c0,0,0,125.31,0,140.495c-11.705,4.046-24.758,4.317-37.218,0.003
							c0-15.179,0-140.498,0-140.498c0-17.545,7.112-33.429,18.609-44.926C260.036,138.952,267.147,154.836,267.147,172.381z"/>
					</g>
					<g>
						<path style="fill:#407BFF;" d="M267.147,172.381c0,0,0,63.442,0,105.513c-11.873,3.387-24.725,3.576-37.218,0.006
							c0-42.072,0-105.52,0-105.52c0-17.545,7.112-33.429,18.609-44.926C260.036,138.952,267.147,154.836,267.147,172.381z"/>
						<path style="opacity:0.6;fill:#FFFFFF;" d="M267.147,172.381c0,0,0,63.442,0,105.513c-11.873,3.387-24.725,3.576-37.218,0.006
							c0-42.072,0-105.52,0-105.52c0-17.545,7.112-33.429,18.609-44.926C260.036,138.952,267.147,154.836,267.147,172.381z"/>
					</g>
					<g>
						<path style="fill:#407BFF;" d="M267.147,172.381c0,0,0,25.712,0,55.253c-11.873,3.387-24.725,3.576-37.218,0.006
							c0-29.543,0-55.259,0-55.259c0-17.545,7.112-33.429,18.609-44.926C260.036,138.952,267.147,154.836,267.147,172.381z"/>
						<path style="opacity:0.8;fill:#FFFFFF;" d="M267.147,172.381c0,0,0,25.712,0,55.253c-11.873,3.387-24.725,3.576-37.218,0.006
							c0-29.543,0-55.259,0-55.259c0-17.545,7.112-33.429,18.609-44.926C260.036,138.952,267.147,154.836,267.147,172.381z"/>
					</g>
					<g>
						<path style="fill:#407BFF;" d="M267.147,172.381c0,0,0,2.358,0,6.445c-11.873,3.387-24.725,3.576-37.218,0.007
							c0-4.092,0-6.452,0-6.452c0-17.545,7.112-33.429,18.609-44.926C260.036,138.952,267.147,154.836,267.147,172.381z"/>
						<path style="opacity:0.1;fill:#FFFFFF;" d="M267.147,172.381c0,0,0,2.358,0,6.445c-11.873,3.387-24.725,3.576-37.218,0.007
							c0-4.092,0-6.452,0-6.452c0-17.545,7.112-33.429,18.609-44.926C260.036,138.952,267.147,154.836,267.147,172.381z"/>
					</g>
				</g>
				<g>
					
						<ellipse transform="matrix(0.9871 -0.1602 0.1602 0.9871 -29.1789 42.4222)" style="fill:#407BFF;" cx="248.538" cy="202.196" rx="10.838" ry="10.839"/>
					<g>
						<path style="fill:#407BFF;" d="M248.538,213.034c5.71,0,10.378-4.418,10.797-10.021c0.02,0.271,0.041,0.542,0.041,0.818
							c0,5.986-4.853,10.839-10.839,10.839c-5.986,0-10.838-4.853-10.838-10.839c0-0.276,0.021-0.547,0.041-0.818
							C238.161,208.616,242.829,213.034,248.538,213.034z"/>
						<path style="opacity:0.3;" d="M248.538,213.034c5.71,0,10.378-4.418,10.797-10.021c0.02,0.271,0.041,0.542,0.041,0.818
							c0,5.986-4.853,10.839-10.839,10.839c-5.986,0-10.838-4.853-10.838-10.839c0-0.276,0.021-0.547,0.041-0.818
							C238.161,208.616,242.829,213.034,248.538,213.034z"/>
					</g>
					
						<ellipse transform="matrix(0.3827 -0.9239 0.9239 0.3827 -33.3776 354.4384)" style="fill:#FFFFFF;" cx="248.538" cy="202.196" rx="7.664" ry="7.664"/>
					<g>
						<g>
							<path style="fill:#407BFF;" d="M248.94,209.819l-3.138-14.762c0.795-0.305,1.649-0.484,2.546-0.506l3.129,14.72
								C250.691,209.598,249.833,209.772,248.94,209.819z"/>
							<path style="fill:#407BFF;" d="M246.082,209.421l-2.729-12.837c0.352-0.326,0.732-0.618,1.141-0.873l2.985,14.043
								C246.996,209.686,246.531,209.574,246.082,209.421z"/>
						</g>
						<g style="opacity:0.7;">
							<path style="fill:#FFFFFF;" d="M248.94,209.819l-3.138-14.762c0.795-0.305,1.649-0.484,2.546-0.506l3.129,14.72
								C250.691,209.598,249.833,209.772,248.94,209.819z"/>
							<path style="fill:#FFFFFF;" d="M246.082,209.421l-2.729-12.837c0.352-0.326,0.732-0.618,1.141-0.873l2.985,14.043
								C246.996,209.686,246.531,209.574,246.082,209.421z"/>
						</g>
					</g>
				</g>
			</g>
		</g>
	</g>
	<g>
		<g>
			<path style="fill:#407BFF;" d="M235.517,387.391c0,0,6.01-19.71-4.77-18.582c0,0-1.501-19.155-13.412-4.941
				c0,0-7.87-12.598-10.821-1.559c0,0-22.34-14.164-21.394-1.622c0,0-15.904-7.947-17.607-1.526
				c-1.703,6.421,19.178,13.112,19.178,13.112s-17.781-5.941-18.344-3.617C167.784,370.98,234.53,391.517,235.517,387.391z"/>
			<path style="opacity:0.8;fill:#FFFFFF;" d="M235.517,387.391c0,0,6.01-19.71-4.77-18.582c0,0-1.501-19.155-13.412-4.941
				c0,0-7.87-12.598-10.821-1.559c0,0-22.34-14.164-21.394-1.622c0,0-15.904-7.947-17.607-1.526
				c-1.703,6.421,19.178,13.112,19.178,13.112s-17.781-5.941-18.344-3.617C167.784,370.98,234.53,391.517,235.517,387.391z"/>
		</g>
		<g>
			<path style="fill:#407BFF;" d="M259.382,387.895c0,0-6.984-22.905,5.543-21.594c0,0,1.744-22.26,15.586-5.742
				c0,0,9.145-14.639,12.575-1.811c0,0,25.961-16.46,24.861-1.885c0,0,18.482-9.235,20.461-1.773
				c1.979,7.462-22.286,15.237-22.286,15.237s20.663-6.904,21.317-4.203C338.093,368.823,260.528,392.69,259.382,387.895z"/>
			<path style="opacity:0.8;fill:#FFFFFF;" d="M259.382,387.895c0,0-6.984-22.905,5.543-21.594c0,0,1.744-22.26,15.586-5.742
				c0,0,9.145-14.639,12.575-1.811c0,0,25.961-16.46,24.861-1.885c0,0,18.482-9.235,20.461-1.773
				c1.979,7.462-22.286,15.237-22.286,15.237s20.663-6.904,21.317-4.203C338.093,368.823,260.528,392.69,259.382,387.895z"/>
		</g>
		<g>
			<path style="fill:#407BFF;" d="M240.465,405.599c0,0-5.582-47.728,20.581-32.461c0,0,5.47-20.614,19.305-8.653
				c0,0,21.809-8.594,13.586,16.448c0,0,20.931-14.953,20.183,8.22c0,0,25.416-11.96,22.924,4.734c0,0,15.947-2.492,15.2,4.734
				c-0.747,7.226-42.362,4.734-42.362,4.734s17.694,1.75,17.195,4.114c-0.26,1.235-23.755-0.349-46.206-1.282
				C260.351,405.336,240.703,409.883,240.465,405.599z"/>
			<path style="opacity:0.7;fill:#FFFFFF;" d="M240.465,405.599c0,0-5.582-47.728,20.581-32.461c0,0,5.47-20.614,19.305-8.653
				c0,0,21.809-8.594,13.586,16.448c0,0,20.931-14.953,20.183,8.22c0,0,25.416-11.96,22.924,4.734c0,0,15.947-2.492,15.2,4.734
				c-0.747,7.226-42.362,4.734-42.362,4.734s17.694,1.75,17.195,4.114c-0.26,1.235-23.755-0.349-46.206-1.282
				C260.351,405.336,240.703,409.883,240.465,405.599z"/>
		</g>
		<g>
			<path style="fill:#407BFF;" d="M255.52,404.01c0,0,1.644-28.003-12.259-23.061c0,0-8.116-24.865-19.327-2.245
				c0,0-14.445-14.15-14.817,1.401c0,0-34.093-11.592-28.827,4.701c0,0-23.587-5.425-23.786,3.616
				c-0.198,9.041,29.572,11.211,29.572,11.211s-25.429-2.17-25.43,1.085C160.645,403.974,255.536,409.785,255.52,404.01z"/>
			<path style="opacity:0.7;fill:#FFFFFF;" d="M255.52,404.01c0,0,1.644-28.003-12.259-23.061c0,0-8.116-24.865-19.327-2.245
				c0,0-14.445-14.15-14.817,1.401c0,0-34.093-11.592-28.827,4.701c0,0-23.587-5.425-23.786,3.616
				c-0.198,9.041,29.572,11.211,29.572,11.211s-25.429-2.17-25.43,1.085C160.645,403.974,255.536,409.785,255.52,404.01z"/>
		</g>
		<g>
			<path style="fill:#407BFF;" d="M273.134,408.53c0,0,26.194,2.103,25.352-1.68c-0.843-3.783-20.165-4.624-20.165-4.624
				s25.576-10.921,16.848-16.521c-8.727-5.6-25.229,5.6-25.229,5.6s20.058-15.478,7.821-19.322
				c-12.237-3.844-22.898,11.481-22.898,11.481s3.857-12.158-3.424-12.1c-7.281,0.059-7.235,11.82-7.235,11.82
				s-13.693-14.841-20.451-7.281s6.82,16.522,6.82,16.522s-19.997-11.094-23.788-2.187c-3.791,8.907,18.234,13.108,18.234,13.108
				s-21.999-1.469-22.712,1.926C201.594,408.667,256.185,406.317,273.134,408.53z"/>
			<path style="opacity:0.9;fill:#FFFFFF;" d="M273.134,408.53c0,0,26.194,2.103,25.352-1.68
				c-0.843-3.783-20.165-4.624-20.165-4.624s25.576-10.921,16.848-16.521c-8.727-5.6-25.229,5.6-25.229,5.6
				s20.058-15.478,7.821-19.322c-12.237-3.844-22.898,11.481-22.898,11.481s3.857-12.158-3.424-12.1
				c-7.281,0.059-7.235,11.82-7.235,11.82s-13.693-14.841-20.451-7.281s6.82,16.522,6.82,16.522s-19.997-11.094-23.788-2.187
				c-3.791,8.907,18.234,13.108,18.234,13.108s-21.999-1.469-22.712,1.926C201.594,408.667,256.185,406.317,273.134,408.53z"/>
		</g>
	</g>
</g>
<g id="Character_2_1_">
	<g>
		<g>
			<g>
				<g>
					<polygon style="fill:#407BFF;" points="412.346,162.743 408.816,162.594 408.57,163.583 409.718,164.075 410.458,165.757 					
						"/>
					<polygon style="opacity:0.3;" points="412.346,162.743 408.816,162.594 408.57,163.583 409.718,164.075 410.458,165.757 					
						"/>
				</g>
				<path style="fill:#263238;" d="M411.562,163.728c0.122-0.577-0.085-1.11-0.463-1.189c-0.377-0.08-0.782,0.324-0.904,0.901
					c-0.122,0.577,0.085,1.11,0.463,1.189C411.036,164.708,411.441,164.305,411.562,163.728z"/>
				<path style="fill:#263238;" d="M417.7,156.691c0,0-4.264-4.172-7.867-1.661c-3.604,2.51,4.722,5.785,4.722,5.785L417.7,156.691z
					"/>
				<path style="fill:#A02724;" d="M410.879,164.639l-4.126,3.076c0,0,0.968,1.505,3.109,1.546L410.879,164.639z"/>
				<path style="fill:#B55B52;" d="M425.88,189.286c0,0-4.45-1.803-1.927-10.221c0,0-3.674-3.165-7.143-1.468
					c-3.468,1.697,0.061,9.039-4.059,10.499C412.751,188.096,415.16,190.98,425.88,189.286z"/>
				<path style="opacity:0.2;" d="M418.349,181.747c0,0-1.449,1.328-3.376,2.282c0.076-1.164,0.049-2.401,0.185-3.499
					L418.349,181.747z"/>
				<path style="fill:#B55B52;" d="M431.351,168.511c-2.417,7.048-3.29,10.089-7.925,12.77c-6.567,2.221-15.116-0.477-14.85-8.111
					c0.236-6.869,4.14-17.216,11.964-18.172c5.577-0.679,10.648,3.291,11.327,8.868
					C432.058,165.434,431.881,167.024,431.351,168.511z"/>
				<path style="fill:#263238;" d="M416.167,170.454l-1.925-1.888c0,0,1.893-2.213,0.962-5.683
					c-0.931-3.47-4.358-10.094,1.457-13.354c5.814-3.26,9.219,2.313,9.219,2.313s5.502-2.645,7.515,1.937
					c2.013,4.582,0.553,6.159,0.553,6.159s4.745,0.513,3.001,6.519c-1.744,6.006-3.736,3.046-6.377,8.092
					c-2.641,5.046-7.146,6.732-7.146,6.732s-1.264-1.092-3.17-0.313C420.256,180.968,421.319,174.134,416.167,170.454z"/>
				<path style="fill:#263238;" d="M412.861,162.581c-0.112-0.026-0.205-0.105-0.251-0.211c-0.291-0.83-0.965-1.469-1.81-1.715
					c-0.183-0.041-0.3-0.222-0.262-0.406c0.042-0.185,0.222-0.304,0.409-0.27c1.071,0.295,1.932,1.091,2.31,2.136
					c0.077,0.169,0.002,0.369-0.168,0.445c-0.005,0.002-0.011,0.005-0.016,0.007C413.008,162.598,412.932,162.603,412.861,162.581z"
					/>
				<path style="fill:#407BFF;" d="M419.316,167.72l-10.499-5.125c0,0-1.377,4.529-0.571,4.74c0.806,0.21,1.916-2.909,1.916-2.909
					l7.828,3.61L419.316,167.72z"/>
				<path style="fill:#407BFF;" d="M419.316,167.72c0,0,7.144,4.617,12.626,4.782l-0.827,1.104c0,0-4.842-0.376-12.198-5.127
					L419.316,167.72z"/>
				<path style="fill:#B55B52;" d="M417.938,167.249c-1.369,0.666-2.415,1.851-2.908,3.291c-0.64,1.915,1.052,2.991,2.91,2.558
					c1.684-0.391,4.027-1.862,3.86-3.838C421.632,167.284,419.62,166.453,417.938,167.249z"/>
			</g>
			<g>
				<polygon style="fill:#263238;" points="420.39,287.419 417.866,315.459 419.548,383.595 403.566,383.595 399.921,314.057 
					399.921,285.457 				"/>
				<g>
					<polygon style="fill:#B55B52;" points="416.462,383.173 416.71,397.067 409.397,396.629 408.497,384.043 					"/>
					<path style="fill:#263238;" d="M408.077,395.749l9.231-0.166c0.348-0.006,0.654,0.229,0.736,0.568l1.803,7.48
						c0.165,0.662-0.239,1.333-0.901,1.498c-0.085,0.021-0.172,0.033-0.259,0.036c-3.329,0.002-6.291-0.127-10.434-0.047
						c-4.889,0.089-3.638,0.652-9.384,0.837c-3.462,0.108-4.167-3.817-2.702-4.037c6.706-0.967,7.367-3.009,9.916-5.461
						C406.639,395.984,407.349,395.733,408.077,395.749z"/>
					<polygon style="opacity:0.2;" points="416.501,385.364 416.594,390.57 408.982,390.812 408.683,386.632 					"/>
					<polygon style="fill:#407BFF;" points="420.761,382.415 420.289,388.464 403.873,389.096 402.749,382.872 					"/>
				</g>
			</g>
			<g>
				<polygon style="fill:#263238;" points="438.615,292.466 439.457,312.935 450.112,381.913 435.811,383.595 422.072,314.057 
					420.39,283.494 436.653,285.457 				"/>
				<g>
					<polygon style="fill:#B55B52;" points="447.367,380.14 449.349,393.895 442.039,394.373 439.573,381.999 					"/>
					<path style="fill:#263238;" d="M440.62,393.666l9.138-1.318c0.344-0.05,0.677,0.146,0.801,0.471l2.724,7.196
						c0.246,0.637-0.07,1.352-0.707,1.599c-0.082,0.031-0.166,0.054-0.253,0.068c-3.302,0.418-6.257,0.66-10.358,1.257
						c-4.839,0.7-3.528,1.102-9.206,2.003c-3.422,0.54-4.611-3.266-3.185-3.668c6.532-1.797,6.933-3.906,9.156-6.657
						C439.223,394.079,439.895,393.74,440.62,393.666z"/>
					<polygon style="opacity:0.2;" points="447.679,382.309 448.422,387.463 440.9,388.654 440.081,384.544 					"/>
					<polygon style="fill:#407BFF;" points="451.537,378.85 451.825,384.911 435.616,387.59 433.723,381.556 					"/>
				</g>
			</g>
			<polygon style="opacity:0.5;" points="400.802,330.869 399.921,314.057 399.921,295.411 410.155,295.411 418.776,305.354 
				417.866,315.459 418.207,329.26 			"/>
			<polygon style="opacity:0.5;" points="439.457,312.935 442.108,330.099 425.025,329.001 422.072,314.057 420.39,283.494 
				436.653,285.457 438.765,296.096 			"/>
			<g>
				<path style="fill:#B55B52;" d="M389.613,213.196l-6.029-2.103c0,0-0.14-3.225-4.346-4.206c0,0-2.664-0.981-4.486-0.14
					c-1.823,0.841-1.963,6.029,0.841,8.132c2.804,2.103,4.066,0.28,7.991,1.402l6.029,2.523V213.196z"/>
				<path style="fill:#407BFF;" d="M406.31,216.9l-18.587-5.047c0,0-3.084,3.225-2.664,6.87l17.945,8.552L406.31,216.9z"/>
				<path style="opacity:0.5;fill:#FFFFFF;" d="M406.31,216.9l-18.587-5.047c0,0-3.084,3.225-2.664,6.87l17.945,8.552L406.31,216.9z
					"/>
				<path style="fill:#B55B52;" d="M380.695,207.822c0,0-3.069-4.685-3.975-4.084c-0.906,0.601,1.017,3.973,1.017,3.973
					L380.695,207.822z"/>
			</g>
			<g>
				<path style="fill:#407BFF;" d="M428.713,189.736l-2.582-4.214c0,0-11.025-1.357-16.2,1.625l-3.621,3.793
					C406.31,190.94,415.229,190.699,428.713,189.736z"/>
				<path style="opacity:0.5;fill:#FFFFFF;" d="M428.713,189.736l-2.582-4.214c0,0-11.025-1.357-16.2,1.625l-3.621,3.793
					C406.31,190.94,415.229,190.699,428.713,189.736z"/>
			</g>
			<g>
				<g>
					<path style="fill:#407BFF;" d="M444.504,327.376c0,0-2.135-32.493-4.918-55.921c-0.923-7.771-1.733-14.544-2.252-18.805
						c-0.872-7.163-1.046-18.269,0.015-29.148c1.472-15.097,3.761-29.758-4.061-32.842c-13.459-5.306-32.246-0.539-34.769,4.789
						c-2.524,5.327-2.243,131.786-2.243,131.786l28.881-1.402l-0.958-43.462l5.501,43.462L444.504,327.376z"/>
					<path style="opacity:0.8;fill:#FFFFFF;" d="M444.504,327.376c0,0-2.135-32.493-4.918-55.921
						c-0.923-7.771-1.733-14.544-2.252-18.805c-0.872-7.163-1.046-18.269,0.015-29.148c1.472-15.097,3.761-29.758-4.061-32.842
						c-13.459-5.306-32.246-0.539-34.769,4.789c-2.524,5.327-2.243,131.786-2.243,131.786l28.881-1.402l-0.958-43.462l5.501,43.462
						L444.504,327.376z"/>
				</g>
				<g>
					<polygon style="fill:#407BFF;" points="395.665,270.596 400.988,272.278 406.31,271.437 406.31,266.95 395.665,266.109 					
						"/>
					<polygon style="opacity:0.7;fill:#FFFFFF;" points="395.665,270.596 400.988,272.278 406.31,271.437 406.31,266.95 
						395.665,266.109 					"/>
				</g>
			</g>
			<path style="opacity:0.1;" d="M397.031,221.241l9.723-22.778l3.402-3.295c0,0,0.562,22.153-13.424,42.177
				C396.815,231.631,396.914,226.195,397.031,221.241z"/>
			<g>
				<g>
					<path style="fill:#407BFF;" d="M361.306,219.003h15.587c0.613,0,1.092-0.531,1.027-1.141l-2.288-21.767
						c-0.055-0.526-0.499-0.925-1.028-0.925h-15.587c-0.613,0-1.092,0.531-1.028,1.141l2.288,21.768
						C360.333,218.603,360.777,219.003,361.306,219.003z"/>
					<path style="opacity:0.5;fill:#FFFFFF;" d="M361.306,219.003h15.587c0.613,0,1.092-0.531,1.027-1.141l-2.288-21.767
						c-0.055-0.526-0.499-0.925-1.028-0.925h-15.587c-0.613,0-1.092,0.531-1.028,1.141l2.288,21.768
						C360.333,218.603,360.777,219.003,361.306,219.003z"/>
				</g>
				<g>
					<path style="fill:#407BFF;" d="M362.065,217.642h13.808c0.543,0,0.967-0.471,0.91-1.011l-2.027-19.282
						c-0.049-0.466-0.442-0.819-0.91-0.819h-13.808c-0.543,0-0.967,0.47-0.91,1.011l2.027,19.282
						C361.204,217.288,361.596,217.642,362.065,217.642z"/>
				</g>
				<path style="opacity:0.9;fill:#FFFFFF;" d="M362.065,217.642h13.808c0.543,0,0.967-0.471,0.91-1.011l-2.027-19.282
					c-0.049-0.466-0.442-0.819-0.91-0.819h-13.808c-0.543,0-0.967,0.47-0.91,1.011l2.027,19.282
					C361.204,217.288,361.596,217.642,362.065,217.642z"/>
				<g>
					<path style="fill:#407BFF;" d="M358.177,195.169h0.841c-0.613,0-1.092,0.531-1.027,1.141l2.288,21.768
						c0.055,0.526,0.499,0.925,1.027,0.925h-0.841c-0.529,0-0.972-0.399-1.027-0.925l-2.288-21.768
						C357.085,195.7,357.563,195.169,358.177,195.169z"/>
					<path style="opacity:0.3;fill:#FFFFFF;" d="M358.177,195.169h0.841c-0.613,0-1.092,0.531-1.027,1.141l2.288,21.768
						c0.055,0.526,0.499,0.925,1.027,0.925h-0.841c-0.529,0-0.972-0.399-1.027-0.925l-2.288-21.768
						C357.085,195.7,357.563,195.169,358.177,195.169z"/>
				</g>
				<path style="fill:#407BFF;" d="M363.89,205.754c0.24,2.284,2.286,4.136,4.57,4.136c2.284,0,3.941-1.852,3.701-4.136
					c-0.24-2.284-2.286-4.136-4.57-4.136C365.307,201.618,363.65,203.47,363.89,205.754z"/>
				<g>
					<path style="fill:#407BFF;" d="M361.647,205.787c-0.18-1.716,0.323-3.33,1.415-4.544c1.085-1.205,2.621-1.869,4.326-1.869
						c3.5,0,6.648,2.847,7.016,6.347c0.18,1.717-0.322,3.33-1.416,4.544c-1.085,1.205-2.621,1.869-4.326,1.869
						C365.162,212.134,362.015,209.286,361.647,205.787z M363.532,201.665c-0.972,1.079-1.418,2.52-1.257,4.056l0,0
						c0.335,3.189,3.201,5.782,6.388,5.782c1.523,0,2.893-0.589,3.857-1.66c0.972-1.079,1.418-2.52,1.257-4.056
						c-0.336-3.188-3.201-5.782-6.389-5.782C365.865,200.005,364.496,200.594,363.532,201.665z"/>
				</g>
				<polygon style="opacity:0.3;fill:#FFFFFF;" points="375.03,217.642 371.525,217.642 367.037,196.529 370.542,196.529 				"/>
				<polygon style="opacity:0.3;fill:#FFFFFF;" points="370.263,217.642 368.511,217.642 364.023,196.529 365.776,196.529 				"/>
			</g>
			<g>
				<path style="fill:#B55B52;" d="M379.121,219.647l-3.455-2.219c0,0,0.299-4.019-0.606-5.564
					c-0.906-1.545-5.751-6.148-7.028-5.371c-1.277,0.777,1.969,3.591,1.969,3.591s-2.97,4.64-2.04,6.75
					c0.93,2.111,4.208,2.93,4.208,2.93l4.682,4.434L379.121,219.647z"/>
				<path style="fill:#407BFF;" d="M409.915,191.383c0,0-10.134-1.823-13.219,7.43s-6.589,23.133-6.589,23.133
					s-10.885-5.038-12.799-3.917c0,0-2.616,3.084-1.494,6.169c0,0,13.312,8.403,17.939,7.842
					c4.626-0.561,13.382-22.852,13.382-22.852S414.862,191.664,409.915,191.383z"/>
				<path style="opacity:0.7;fill:#FFFFFF;" d="M409.915,191.383c0,0-10.134-1.823-13.219,7.43s-6.589,23.133-6.589,23.133
					s-10.885-5.038-12.799-3.917c0,0-2.616,3.084-1.494,6.169c0,0,13.312,8.403,17.939,7.842
					c4.626-0.561,13.382-22.852,13.382-22.852S414.862,191.664,409.915,191.383z"/>
			</g>
		</g>
	</g>
</g>
<g id="Character_1">
	<g>
		<g>
			<g>
				<polygon style="fill:#DD8C6A;" points="111.564,389.04 113.801,404.291 122.129,403.09 120.654,386.422 				"/>
				<g>
					<path style="fill:#407BFF;" d="M123.472,403.146c-0.084-0.008-0.155-0.066-0.18-0.146c-0.025-0.081,0.005-0.169,0.073-0.219
						c0.121-0.089,2.878-2.105,4.332-1.877c0.271,0.039,0.516,0.181,0.683,0.397c0.218,0.236,0.264,0.584,0.114,0.868
						c-0.297,0.491-1.361,0.806-2.411,0.924C125.216,403.188,124.342,403.205,123.472,403.146z M124.09,402.805
						c1.594,0.017,3.723-0.237,4.052-0.831c0.049-0.074,0.088-0.201-0.089-0.433c-0.098-0.139-0.254-0.226-0.424-0.235
						c-0.128-0.021-0.259-0.023-0.388-0.006C126.105,401.597,125.036,402.108,124.09,402.805z"/>
					<path style="fill:#407BFF;" d="M123.365,403.147c-0.065-0.033-0.107-0.098-0.11-0.171c-0.001-0.107-0.033-2.411,0.943-3.417
						c0.28-0.296,0.668-0.465,1.075-0.468c0.558-0.007,0.761,0.252,0.808,0.479c0.287,0.93-1.536,2.991-2.495,3.553
						c-0.025,0.016-0.054,0.022-0.083,0.017C123.459,403.159,123.41,403.162,123.365,403.147z M125.182,399.486
						c-0.254,0.026-0.489,0.143-0.663,0.329c-0.548,0.799-0.837,1.748-0.829,2.717c0.977-0.738,2.146-2.321,2.03-2.888
						c-0.021-0.049-0.061-0.192-0.424-0.182L125.182,399.486L125.182,399.486z"/>
					<path style="fill:#263238;" d="M122.476,402.061l-9.221,1.042c-0.347,0.039-0.621,0.314-0.659,0.662l-0.819,7.69
						c-0.078,0.682,0.412,1.297,1.094,1.375c0.087,0.01,0.176,0.011,0.263,0.002c3.317-0.433,6.252-0.949,10.391-1.411
						c4.883-0.551,3.711,0.174,9.461-0.393c3.464-0.345,3.653-4.349,2.165-4.377c-6.809-0.086-7.735-2.035-10.596-4.145
						C123.939,402.107,123.2,401.949,122.476,402.061z"/>
				</g>
				<polygon style="opacity:0.2;" points="121.472,395.672 115.222,395.672 112.707,396.834 113.315,400.974 121.821,399.615 				
					"/>
			</g>
			<g>
				<path style="fill:#407BFF;" d="M84.549,235.588l18.323,88.927l7.817,74.943l12.486-2.04c0,0,0.726-37.674-2.929-77.052
					c-3.3-35.559-10.935-72.507-12.297-84.359l-4.961-8.025l-9.194,1.502L84.549,235.588z"/>
				<path style="opacity:0.2;" d="M90.2,263.014l5.252,25.488c0.596-18.412-1.951-40.27-1.951-40.27L90.2,263.014z"/>
			</g>
		</g>
		<g>
			<g>
				<polygon style="fill:#DD8C6A;" points="72.806,393.84 72.806,409.255 81.297,408.085 82.19,392.569 				"/>
				<g>
					<path style="fill:#407BFF;" d="M82.778,405.409c-0.083-0.015-0.149-0.077-0.168-0.159c-0.018-0.083,0.018-0.168,0.09-0.213
						c0.128-0.08,3.032-1.877,4.464-1.537c0.267,0.059,0.5,0.22,0.65,0.449c0.2,0.252,0.218,0.603,0.047,0.874
						c-0.334,0.467-1.419,0.699-2.475,0.736C84.513,405.584,83.641,405.534,82.778,405.409z M83.42,405.116
						c1.588,0.14,3.73,0.05,4.104-0.517c0.055-0.07,0.103-0.193-0.055-0.439c-0.087-0.146-0.236-0.245-0.405-0.267
						c-0.127-0.031-0.257-0.043-0.387-0.036C85.522,404.067,84.417,404.494,83.42,405.116z"/>
					<path style="fill:#407BFF;" d="M82.671,405.401c-0.062-0.037-0.099-0.106-0.097-0.179c0.008-0.107,0.153-2.406,1.204-3.334
						c0.302-0.273,0.702-0.412,1.108-0.383c0.556,0.036,0.739,0.31,0.768,0.54c0.215,0.949-1.762,2.863-2.761,3.35
						c-0.026,0.014-0.055,0.018-0.084,0.01C82.764,405.421,82.715,405.419,82.671,405.401z M84.765,401.891
						c-0.255,0.006-0.499,0.105-0.686,0.277c-0.608,0.755-0.969,1.678-1.036,2.645c1.031-0.66,2.319-2.148,2.246-2.723
						c-0.017-0.051-0.046-0.196-0.409-0.214L84.765,401.891L84.765,401.891z"/>
					<path style="fill:#263238;" d="M81.868,404.25l-9.273,0.328c-0.35,0.012-0.644,0.265-0.709,0.609l-1.409,7.604
						c-0.13,0.674,0.311,1.325,0.984,1.455c0.086,0.017,0.174,0.024,0.262,0.022c3.341-0.176,6.307-0.465,10.469-0.606
						c4.911-0.172,3.686,0.459,9.463,0.337c3.481-0.077,3.978-4.054,2.496-4.197c-6.782-0.611-7.555-2.625-10.245-4.949
						C83.324,404.409,82.598,404.194,81.868,404.25z"/>
				</g>
				<polygon style="opacity:0.2;" points="72.806,402.417 81.624,402.417 81.825,398.923 72.806,398.923 				"/>
			</g>
			<path style="fill:#407BFF;" d="M71.683,235.777l-0.085,164.59h12.148c0,0,8.9-135.108,10.048-160.379l-3.458-8.774h-8.945
				L71.683,235.777z"/>
		</g>
		<path style="fill:#263238;" d="M110.042,239.389c-0.442-3.31-0.78-6.549-0.638-9.644c1.413-30.72,0.105-49.626-0.363-55.004
			c-0.084-0.964-0.745-1.783-1.673-2.06c-21.458-6.412-37.6-2.031-42.785-0.214c-1.042,0.365-1.697,1.386-1.582,2.485
			c0.953,9.049,5.187,49.714,5.858,64.439c0.098,2.158,0.058,7.37,0.025,10.248c-0.013,1.171,0.825,2.169,1.98,2.364
			c4.793,0.809,16.788,2.333,20.456-1.903c0.818-0.946,2.255-1.023,3.223-0.232c1.5,1.226,3.956,2.325,7.868,2.05
			c3.721-0.261,6.17-0.581,7.735-0.854c1.36-0.236,2.219-1.589,1.875-2.926C111.337,245.489,110.296,241.296,110.042,239.389z"/>
		<path style="fill:#DD8C6A;" d="M89.921,169.485l-2.15-12.75l-9.211-2.85v15.71l4.306,3.769l4.856-0.212l3.283-3.576
			C90.644,169.544,90.277,169.509,89.921,169.485z"/>
		<g>
			<path style="fill:#407BFF;" d="M94.184,220.934c0,0.656-0.532,1.188-1.188,1.188c-0.656,0-1.188-0.532-1.188-1.188
				c0-0.656,0.532-1.188,1.188-1.188C93.652,219.746,94.184,220.278,94.184,220.934z"/>
			<path style="fill:#407BFF;" d="M95.372,233.426c0,0.656-0.532,1.188-1.188,1.188c-0.656,0-1.188-0.532-1.188-1.188
				c0-0.656,0.532-1.188,1.188-1.188C94.84,232.238,95.372,232.77,95.372,233.426z"/>
			<g>
				<polygon style="fill:#FFFFFF;" points="76.01,169.5 77.392,169.218 85.314,173.15 87.722,173.15 92.187,169.063 93.738,169.373 
					93.978,183.182 92.945,196.286 90.76,210.718 90.704,210.718 90.075,209.421 87.722,204.566 84.546,199.046 78.618,185.486 
					75.282,174.782 				"/>
				<path style="fill:#407BFF;" d="M76.7,169.373c0,0,5.489,16.855,14.004,41.345l-17.328-30.28l1.344-3.486l-2.838-1.494l1.643-5.5
					L76.7,169.373z"/>
				<path style="fill:#407BFF;" d="M92.818,169.158c0,0-0.676,17.275-2.114,41.97l7.883-32.657l-2.091-2.716l2.17-2.23l-2.391-3.695
					L92.818,169.158z"/>
				<g>
					<polygon style="fill:#407BFF;" points="78.544,168.961 86.917,173.176 83.407,177.823 76.7,169.373 					"/>
					<polygon style="opacity:0.7;fill:#FFFFFF;" points="78.544,168.961 86.917,173.176 83.407,177.823 76.7,169.373 					"/>
				</g>
				<g>
					<polygon style="fill:#407BFF;" points="91.115,168.902 86.521,173.176 90.032,177.823 92.818,169.158 					"/>
					<polygon style="opacity:0.7;fill:#FFFFFF;" points="91.115,168.902 86.521,173.176 90.032,177.823 92.818,169.158 					"/>
				</g>
				<path style="fill:#263238;" d="M92.388,172.855c-0.021-0.362-0.313-0.648-0.675-0.659c-0.617-0.018-1.508-0.007-1.86,0.181
					c-0.644,0.344-1.688,1.807-2.317,2.749l-0.006-0.1c-0.02-0.34-0.312-0.599-0.652-0.579l-0.503,0.03
					c-0.34,0.02-0.599,0.312-0.579,0.652l0.006,0.1c-0.736-0.861-1.947-2.189-2.627-2.454c-0.368-0.143-1.239-0.052-1.849,0.039
					c-0.37,0.055-0.633,0.384-0.611,0.757l0.327,5.478c0.022,0.373,0.322,0.668,0.696,0.679c0.616,0.017,1.492,0.004,1.84-0.181
					c0.644-0.344,1.688-1.807,2.317-2.749v0c0.02,0.34,0.312,0.599,0.652,0.579l0.503-0.03c0.34-0.02,0.599-0.312,0.579-0.652
					v-0.001c0.736,0.861,1.947,2.189,2.627,2.454c0.371,0.145,1.258,0.049,1.868-0.042c0.359-0.053,0.614-0.372,0.592-0.734
					L92.388,172.855z"/>
			</g>
		</g>
		<path style="opacity:0.1;" d="M78.56,157.568c1.66,2.53,4.686,5.1,10.192,6.041l-0.982-6.874l-9.211-2.85V157.568z"/>
		<g>
			<path style="fill:#DD8C6A;" d="M153.529,177.95c0,0,1.824-3.936,6.624-4.224c0,0,2.4-3.936,5.088-3.84
				c2.688,0.096,3.648,6.48,3.648,6.48s-3.264,5.52-8.352,5.04l-6.026,0.576L153.529,177.95z"/>
			<g>
				<path style="fill:#407BFF;" d="M150.169,179.006l2.736-2.64c0,0,3.888,2.496,4.848,7.536l-4.224,1.2L150.169,179.006z"/>
				<path style="opacity:0.8;fill:#FFFFFF;" d="M150.169,179.006l2.736-2.64c0,0,3.888,2.496,4.848,7.536l-4.224,1.2
					L150.169,179.006z"/>
			</g>
			<path style="fill:#263238;" d="M150.497,178.36c-11.737,6.668-23.175,7.894-23.175,7.894
				c-10.4-10.32-21.216-13.938-21.216-13.938v11.765c0,0,12.433,11.534,20.352,12.829c6.275,1.027,21.849-7.974,28.053-11.76
				C153.352,181.532,151.328,179.204,150.497,178.36z"/>
		</g>
		<g>
			<polygon style="fill:#407BFF;" points="82.964,211.263 82.401,227.997 84.693,228.232 87.635,210.889 			"/>
			<path style="opacity:0.4;fill:#FFFFFF;" d="M82.799,216.171c0.7,0.163,1.427,0.288,2.177,0.365
				c0.572,0.059,1.132,0.08,1.687,0.083l0.972-5.73l-4.671,0.373L82.799,216.171z"/>
			<path style="fill:#407BFF;" d="M88.938,211.023c-0.204,1.986-1.98,3.43-3.965,3.226c-1.986-0.204-3.43-1.98-3.226-3.965
				c0.204-1.986,1.98-3.43,3.965-3.226C87.699,207.262,89.143,209.038,88.938,211.023z"/>
			<path style="opacity:0.8;fill:#FFFFFF;" d="M88.938,211.023c-0.204,1.986-1.98,3.43-3.965,3.226
				c-1.986-0.204-3.43-1.98-3.226-3.965c0.204-1.986,1.98-3.43,3.965-3.226C87.699,207.262,89.143,209.038,88.938,211.023z"/>
		</g>
		<g>
			<path style="fill:#DD8C6A;" d="M74.71,218.381c0,0,6.837,0.333,8.838,0c2.001-0.333,3.94-1.167,3.94-1.167l2.397,2.168
				c0,0,3.066,5.336-0.385,7.004c-3.451,1.668-15.457-3.487-15.457-3.487L74.71,218.381z"/>
			<g>
				<path style="fill:#407BFF;" d="M70.875,216.493c0,0,3.777,0,5.56,1.152c0,0-1.672,3.168-0.808,6.48l-5.616-1.152L70.875,216.493
					z"/>
				<path style="opacity:0.8;fill:#FFFFFF;" d="M70.875,216.493c0,0,3.777,0,5.56,1.152c0,0-1.672,3.168-0.808,6.48l-5.616-1.152
					L70.875,216.493z"/>
			</g>
			<path style="fill:#263238;" d="M67,171.7c0,0-10.057,0.322-18.493,28.426c-1.715,5.713-6.851,18.265,9.246,21.997l14.129,2.003
				c0,0-0.912-4.608,1.008-7.872c0,0-9.6-4.224-15.552-7.104c0,0,5.952-15.36,9.408-16.896C66.747,192.254,70.133,178.025,67,171.7z
				"/>
		</g>
		<path style="fill:#263238;" d="M71.463,137.482c0,0-1.569-2.56-3.777-1.312C67.686,136.17,70.248,131.786,71.463,137.482z"/>
		<g>
			<path style="fill:#DD8C6A;" d="M74.211,145.885c0.756,7.025,0.932,10.006,4.657,13.45c5.604,5.19,14.065,2.714,15.423-4.387
				c1.212-6.4-0.236-16.848-7.266-19.286c-5.008-1.795-10.523,0.809-12.318,5.817C74.201,142.889,74.032,144.397,74.211,145.885z"/>
			<path style="fill:#263238;" d="M85.521,147.203c0.033,0.573,0.358,1.025,0.728,1.012c0.37-0.013,0.66-0.502,0.637-1.073
				c-0.022-0.571-0.358-1.025-0.728-1.012C85.788,146.144,85.526,146.658,85.521,147.203z"/>
			<path style="fill:#263238;" d="M91.997,146.915c0.031,0.583,0.358,1.025,0.728,1.012c0.37-0.013,0.66-0.502,0.637-1.073
				c-0.022-0.571-0.358-1.025-0.73-1.001C92.261,145.876,91.975,146.344,91.997,146.915z"/>
			<path style="fill:#C13B37;" d="M90.048,148.047c0.575,1.285,1.323,2.485,2.223,3.567c-0.576,0.446-1.317,0.62-2.032,0.478
				L90.048,148.047z"/>
			<path style="fill:#263238;" d="M82.783,145.747c0.145,0.027,0.29-0.046,0.356-0.178c0.627-0.915,1.608-1.528,2.705-1.689
				c0.187-0.025,0.318-0.196,0.294-0.382c-0.024-0.182-0.19-0.309-0.372-0.286c-0.004,0-0.008,0.001-0.012,0.002
				c-1.321,0.184-2.496,0.935-3.219,2.057c-0.082,0.164-0.016,0.363,0.148,0.445c0,0,0,0,0,0
				C82.713,145.735,82.747,145.746,82.783,145.747z"/>
			<path style="fill:#263238;" d="M93.823,144.104c0.121,0.019,0.244-0.027,0.323-0.122c0.117-0.145,0.096-0.357-0.046-0.476
				c-0.825-0.73-1.96-1.001-3.026-0.723c-0.171,0.047-0.272,0.223-0.225,0.395c0.002,0.008,0.005,0.017,0.008,0.025
				c0.054,0.175,0.24,0.273,0.415,0.219c0.002,0,0.003-0.001,0.005-0.001l0,0c0.839-0.188,1.716,0.036,2.363,0.602
				C93.691,144.068,93.755,144.097,93.823,144.104z"/>
			<g>
				<path style="fill:#263238;" d="M89.952,154.033c-0.217,0.996-0.255,2.781-0.255,2.781c-0.162,0.026-0.325,0.051-0.488,0.069
					c-2.211,0.293-3.333-0.301-3.907-1.048c-0.312-0.41-0.457-0.873-0.523-1.257c-0.081-0.443-0.038-0.778-0.038-0.778
					c1.265,0.544,3.346,0.43,4.456,0.322C89.662,154.081,89.952,154.033,89.952,154.033z"/>
				<path style="fill:#FFFFFF;" d="M89.197,154.122l-0.096,0.818c-2.083,0.271-3.585,0.183-4.321-0.362
					c-0.081-0.443-0.038-0.778-0.038-0.778C86.007,154.344,88.088,154.23,89.197,154.122z"/>
				<path style="fill:#DE5753;" d="M89.21,156.883c-2.211,0.293-3.333-0.301-3.907-1.048c0.757-0.071,1.678-0.072,2.519,0.161
					C88.466,156.17,88.902,156.516,89.21,156.883z"/>
			</g>
		</g>
		<path style="fill:#263238;" d="M75.941,155.38c0,0,4.918-9.504,2.619-11.904s0.085-2.976,0.085-2.976
			c22.169-0.672,16.614-10.752,10.469-12.672c-2.017-0.63-3.415-0.395-4.395,0.197c1.441-0.006,3.215,0.301,4.123,1.675
			c0,0-3.653-1.271-5.534-0.219c-0.708,1.195-0.818,2.475-0.818,2.475s-16.157-1.354-11.504,13.865
			C71.755,148.335,75.941,155.38,75.941,155.38z"/>
		<path style="fill:#DD8C6A;" d="M72.547,151.391c0.502,1.24,1.472,2.233,2.701,2.762c1.644,0.678,2.684-0.739,2.41-2.412
			c-0.259-1.503-1.419-3.667-3.153-3.666c-1.259,0.041-2.247,1.094-2.206,2.354C72.31,150.764,72.395,151.093,72.547,151.391z"/>
	</g>
</g>
</svg>
